<?xml version="1.0" standalone="no"?>
<!DOCTYPE svg PUBLIC "-//W3C//DTD SVG 20010904//EN"
 "http://www.w3.org/TR/2001/REC-SVG-20010904/DTD/svg10.dtd">
<svg version="1.0" xmlns="http://www.w3.org/2000/svg"
 width="450.000000pt" height="468.000000pt" viewBox="0 0 450.000000 468.000000"
 preserveAspectRatio="xMidYMid meet">

<g transform="translate(0.000000,468.000000) scale(0.100000,-0.100000)"
fill="#000000" stroke="none">
<path d="M0 2430 l0 -2250 2250 0 2250 0 0 2250 0 2250 -2250 0 -2250 0 0
-2250z m2489 1996 c22 -18 37 -37 33 -40 -3 -4 1 -4 10 -1 12 5 27 -8 55 -44
45 -59 61 -68 82 -45 15 15 14 16 -4 12 -14 -3 -29 6 -48 29 -16 18 -27 33
-25 33 1 0 35 -11 73 -24 l70 -24 42 -86 c23 -47 47 -86 53 -86 13 0 105 -140
154 -235 20 -38 70 -117 111 -175 41 -58 86 -121 100 -140 32 -47 72 -148 71
-182 -1 -15 1 -25 5 -22 4 2 10 -3 13 -12 5 -12 1 -14 -17 -9 -21 6 -21 5 3
-15 53 -44 72 -64 87 -94 l15 -31 -31 35 c-16 19 -30 30 -31 23 0 -6 4 -15 10
-18 5 -3 15 -16 21 -28 7 -15 2 -13 -15 8 -14 17 -32 38 -41 48 -8 9 -12 17
-7 17 9 1 -40 29 -51 30 -5 0 -5 -5 -1 -12 8 -13 -12 -3 -39 20 -9 8 -26 20
-37 26 -56 32 -171 105 -217 138 -50 37 -71 67 -37 54 9 -3 20 -6 24 -6 5 0
26 -15 47 -32 l37 -33 -20 30 c-11 17 -26 44 -33 61 -16 40 -54 77 -139 134
l-67 45 2 55 c0 32 -2 48 -7 40 -7 -14 -14 -61 -11 -86 1 -6 33 -32 72 -58 71
-48 128 -103 141 -138 7 -18 6 -18 -21 1 -16 12 -33 21 -38 21 -4 0 -2 -4 5
-9 11 -7 11 -9 -2 -14 -9 -4 -15 -3 -15 1 3 18 -3 46 -7 35 -3 -7 -13 -9 -22
-5 -12 4 -8 -5 11 -27 33 -40 35 -56 5 -40 -39 20 -141 91 -176 121 -18 15
-42 28 -54 28 -12 0 -29 6 -37 14 -9 7 -47 29 -86 49 -74 37 -141 48 -304 49
-61 1 -76 -3 -109 -26 -21 -14 -48 -26 -60 -26 -27 0 -113 -42 -131 -64 -7 -9
-18 -13 -24 -9 -5 3 -7 2 -4 -4 10 -15 -68 -73 -116 -87 -35 -10 -46 -20 -69
-61 -38 -70 -47 -81 -98 -116 -93 -66 -180 -141 -173 -152 3 -6 1 -7 -5 -3 -6
4 -29 -5 -51 -19 -22 -15 -45 -28 -53 -29 -66 -11 -76 -32 -90 -171 -10 -106
-9 -117 9 -152 18 -34 32 -83 47 -154 7 -31 71 -128 98 -147 10 -7 18 -17 18
-21 0 -5 18 -27 41 -49 22 -23 38 -46 34 -52 -3 -5 0 -7 8 -4 18 6 206 -87
260 -128 20 -17 37 -26 37 -21 0 11 -35 43 -72 66 -14 9 -37 31 -49 49 l-24
33 30 -19 30 -19 -25 28 c-26 28 -79 61 -93 57 -5 -1 -5 2 -2 8 6 10 -28 52
-83 103 -12 11 -30 32 -39 46 l-16 26 28 -25 c15 -14 64 -61 110 -105 45 -44
124 -116 176 -160 51 -44 114 -98 139 -121 25 -22 86 -74 135 -114 97 -78 287
-256 243 -228 -16 11 -29 14 -33 8 -9 -15 -25 -12 -25 5 0 9 6 12 15 9 22 -9
18 -1 -16 32 l-31 29 7 -30 c7 -29 7 -29 -8 -10 -9 11 -17 26 -17 34 0 18 -46
61 -56 52 -4 -3 -4 -1 -1 5 7 12 -60 64 -81 64 -19 0 -14 -25 8 -45 11 -10 20
-24 20 -32 0 -7 5 -13 10 -13 12 0 13 -20 1 -38 -7 -11 -14 -11 -42 4 -59 30
-229 154 -226 165 1 6 -19 23 -44 38 -113 65 -146 86 -176 114 -18 17 -30 34
-27 38 3 5 -1 6 -9 3 -17 -6 -92 80 -82 95 3 6 0 9 -8 6 -38 -15 -202 261
-228 385 -7 32 -10 98 -7 161 l5 106 64 127 c35 69 69 126 75 126 6 0 39 18
73 40 34 22 66 40 71 40 4 0 10 6 13 13 2 6 7 -6 11 -27 9 -47 1 -56 -69 -81
-27 -10 -54 -22 -59 -26 -16 -15 23 -10 54 6 17 9 32 15 35 15 24 -2 115 78
109 95 -3 7 0 16 7 21 9 5 10 2 6 -10 -5 -12 -3 -16 5 -14 7 3 15 13 17 24 2
10 17 36 33 56 16 21 27 42 24 47 -4 5 -1 13 5 17 8 4 9 3 5 -4 -10 -16 -1
-15 12 1 8 10 6 13 -8 14 -22 2 -39 -16 -49 -53 -4 -15 -12 -29 -19 -32 -8 -2
-10 3 -5 15 3 10 3 15 -1 12 -4 -4 -8 -16 -11 -27 -2 -12 -15 -33 -29 -47 -14
-14 -26 -30 -26 -35 0 -6 -4 -10 -10 -10 -5 0 -10 21 -10 46 0 38 5 50 32 75
35 31 54 37 60 17 3 -7 10 16 18 51 13 60 16 65 64 96 28 18 65 40 83 49 32
16 32 16 49 -13 21 -35 52 -46 75 -25 9 8 39 24 65 34 27 11 40 19 29 20 -11
0 -44 -12 -73 -27 -48 -24 -54 -25 -69 -11 -14 15 -14 16 3 15 11 -1 18 3 17
10 -2 7 3 10 11 7 7 -3 19 2 26 11 7 8 31 18 53 22 30 4 36 8 23 13 -19 6 100
40 145 40 13 0 56 9 94 19 55 15 63 19 37 20 -18 1 -61 -5 -95 -13 -34 -8 -89
-20 -122 -27 -33 -7 -95 -27 -137 -45 -66 -28 -77 -30 -82 -17 -9 24 38 89 87
120 23 15 44 28 46 30 2 1 -19 23 -47 48 -28 26 -56 61 -62 80 -11 33 -10 37
32 85 78 92 175 140 320 161 74 10 91 9 136 -5 58 -19 62 -24 79 -81 l11 -40
1 33 c1 30 3 33 24 26 12 -3 36 -13 52 -22 l30 -15 -19 21 c-10 12 -34 24 -53
28 -18 3 -39 14 -46 23 -12 17 -60 42 -107 56 -22 7 -17 10 35 21 77 16 76 16
74 2 -1 -7 0 -26 1 -43 2 -23 4 -18 11 21 5 30 4 62 -1 80 -9 27 -10 28 -7 2
4 -30 18 -25 -158 -56 -70 -13 -112 -16 -116 -10 -4 5 -9 3 -12 -6 -3 -8 -1
-17 6 -20 7 -4 2 -4 -11 -2 -12 2 -20 0 -16 -5 3 -5 -1 -9 -8 -9 -8 0 -47 -17
-88 -37 -41 -20 -80 -37 -87 -38 -6 0 -15 -4 -20 -9 -4 -5 -3 -6 5 -2 6 4 12
5 12 2 0 -3 -10 -11 -22 -17 -38 -20 33 92 78 123 91 62 123 73 229 75 76 1
111 7 145 22 61 28 72 26 119 -13z m-619 -259 c0 -2 -10 -12 -22 -23 l-23 -19
19 23 c18 21 26 27 26 19z m-50 -50 c0 -2 -15 -16 -32 -33 l-33 -29 29 33 c28
30 36 37 36 29z m-365 -41 l30 -13 -42 -21 c-24 -12 -46 -21 -50 -20 -5 2 -23
-3 -41 -11 -50 -21 -52 -4 -5 40 45 42 61 45 108 25z m134 5 c19 -12 6 -41
-17 -41 -11 0 -25 7 -33 16 -10 13 -10 17 2 25 18 11 30 11 48 0z m1394 -12
c12 10 19 7 35 -13 10 -14 22 -23 25 -20 3 3 14 -3 25 -13 47 -42 51 -44 71
-33 29 15 41 12 41 -10 0 -15 6 -19 23 -17 16 1 21 -3 19 -15 -4 -24 3 -23 30
4 16 16 17 20 5 15 -16 -6 -16 -4 -3 22 18 34 61 51 53 20 -4 -14 0 -19 14
-19 13 0 17 -5 12 -17 -7 -17 -6 -17 20 0 15 9 27 13 27 7 0 -5 13 -10 30 -10
28 0 58 -31 52 -53 -1 -5 5 -6 15 -3 24 7 88 -47 80 -68 -6 -14 -3 -14 20 1
19 13 28 14 31 5 6 -19 50 -15 54 6 3 14 5 13 10 -6 3 -12 3 -20 0 -18 -4 2
-20 -13 -35 -35 -34 -47 -23 -52 16 -7 16 18 26 27 22 20 -3 -7 -8 -24 -11
-37 -3 -20 0 -25 15 -25 26 0 40 -23 44 -71 1 -9 7 -15 14 -12 7 3 13 1 13 -5
0 -5 -6 -12 -14 -15 -8 -3 -14 -15 -13 -26 0 -11 5 -17 9 -15 4 3 8 -6 8 -20
0 -13 6 -27 13 -29 6 -3 -4 -3 -23 0 -26 4 -40 0 -52 -14 -16 -18 -16 -19 5
-19 12 0 25 4 29 10 10 15 48 -23 48 -47 0 -14 -5 -17 -17 -13 -10 4 -14 4
-10 0 10 -11 -23 -44 -44 -44 -10 0 -21 -5 -25 -11 -4 -8 0 -9 15 -4 14 4 21
2 21 -8 0 -16 -41 -54 -67 -60 -19 -4 -15 -7 32 -22 24 -7 19 -62 -6 -70 -28
-9 -19 -28 18 -36 16 -3 34 -9 40 -12 12 -8 15 -105 2 -112 -9 -6 -13 8 -10
33 2 16 -35 30 -93 33 -54 4 -75 -15 -56 -50 7 -14 7 -22 -2 -27 -6 -4 -8 -3
-5 3 10 15 -18 24 -32 10 -20 -20 -12 -27 28 -27 22 0 42 -4 46 -9 6 -11 141
-9 151 2 17 17 34 4 45 -32 11 -37 10 -42 -14 -71 -14 -17 -24 -36 -21 -43 2
-7 -4 -22 -16 -32 -11 -10 -20 -25 -20 -33 0 -12 -3 -12 -15 -2 -13 11 -14 10
-9 -4 3 -9 15 -16 26 -16 10 0 16 -4 13 -10 -4 -6 7 -10 27 -10 24 0 29 -3 18
-10 -12 -8 -12 -10 3 -16 9 -3 14 -10 11 -16 -3 -5 -13 0 -21 12 l-15 21 -16
-22 c-13 -18 -13 -27 -3 -56 11 -30 10 -37 -4 -53 -10 -11 -15 -26 -12 -34 3
-8 1 -17 -6 -19 -8 -3 -6 -11 7 -25 18 -21 18 -22 -8 -32 -31 -11 -66 -13 -66
-3 0 3 8 15 18 26 16 20 16 20 -1 14 -10 -4 -23 -7 -28 -7 -5 0 -9 -7 -9 -15
0 -8 -7 -15 -16 -15 -11 0 -14 6 -9 20 4 11 2 20 -4 20 -6 0 -10 3 -10 8 5 31
-4 54 -27 64 -17 8 -28 9 -32 1 -4 -5 -20 -15 -37 -21 -17 -6 -22 -11 -13 -11
11 -1 15 -6 12 -16 -4 -8 -1 -15 6 -15 6 0 10 -5 8 -12 -6 -16 -46 -17 -59 -1
-9 10 -8 13 4 13 9 0 19 4 22 10 7 12 -43 -6 -63 -22 -10 -9 -8 -15 14 -28 14
-10 21 -19 15 -21 -6 -2 -12 -14 -14 -26 -2 -12 -6 -26 -10 -29 -10 -10 -9
-24 2 -24 5 0 12 13 16 29 6 28 7 29 24 13 11 -10 14 -21 9 -28 -17 -22 35
-26 54 -4 9 11 23 20 31 20 8 0 17 9 20 20 3 13 14 20 30 20 22 0 25 -5 29
-44 2 -36 0 -46 -14 -50 -23 -5 -24 -26 -2 -26 14 0 14 -3 4 -15 -10 -12 -9
-15 6 -15 17 0 17 -1 1 -17 -16 -16 -16 -18 0 -36 15 -15 15 -20 3 -27 -16
-10 -15 -12 23 -28 26 -11 37 -32 17 -32 -5 0 -10 -7 -10 -15 0 -11 -14 -15
-57 -17 -32 0 -62 -2 -68 -3 -5 -2 -21 -4 -35 -5 -17 -2 -20 -4 -8 -7 9 -2 15
-10 12 -18 -3 -7 3 -16 15 -20 17 -5 21 -15 21 -45 0 -22 7 -45 16 -54 15 -16
12 -36 -7 -36 -6 0 -7 5 -4 10 3 5 -1 10 -9 10 -20 0 -20 -9 0 -32 16 -16 16
-18 0 -24 -9 -3 -16 -13 -16 -21 0 -10 6 -13 16 -9 14 6 15 4 4 -9 -16 -19
-30 -4 -30 34 0 21 -3 23 -31 17 -34 -7 -98 22 -235 106 -53 32 -99 52 -130
57 -40 5 -48 10 -46 25 2 13 -1 16 -15 12 -10 -3 -35 5 -55 18 l-38 23 31 22
c17 13 39 42 50 65 10 23 56 80 102 127 72 73 93 102 156 222 39 75 77 137 84
137 8 0 8 3 -2 9 -17 11 0 46 37 79 16 13 23 25 17 30 -12 8 -16 204 -4 196 5
-3 21 2 37 10 16 8 32 13 35 10 2 -3 8 11 11 30 4 19 13 48 21 63 22 42 20 83
-5 83 -12 0 -22 9 -26 24 -5 21 -11 24 -44 21 -20 -2 -64 -5 -96 -6 -58 -3
-59 -3 -68 30 -7 25 -6 35 5 42 12 7 12 9 -1 9 -9 0 -25 25 -40 60 -14 34 -43
84 -64 113 -46 60 -100 145 -109 169 -3 10 0 19 10 22 11 4 14 2 9 -9 -8 -22
1 -18 14 5 9 17 7 22 -15 30 -15 6 -25 17 -25 30 0 17 -4 18 -24 10 -29 -11
-28 -12 -90 102 -40 75 -44 87 -29 90 10 2 21 -1 25 -6 4 -6 12 -5 21 3z m547
-13 c0 -2 -7 -7 -16 -10 -8 -3 -12 -2 -9 4 6 10 25 14 25 6z m-1862 -65 c-7
-10 -33 -47 -57 -82 -75 -108 -111 -153 -111 -137 0 8 5 19 12 26 9 9 9 12 1
12 -7 0 -15 -4 -18 -10 -3 -5 -15 -10 -25 -10 -10 0 -29 -13 -43 -29 -14 -17
-27 -27 -31 -24 -3 3 1 11 9 17 12 8 -2 12 -57 14 -55 2 -76 6 -86 20 -8 11
-27 17 -50 17 -36 0 -37 1 -35 33 1 33 36 82 57 82 6 0 17 14 25 31 11 25 11
36 2 50 -7 12 -7 19 -1 19 5 0 12 0 15 0 3 0 5 -3 6 -7 0 -5 9 -17 20 -29 16
-17 18 -29 13 -63 -4 -23 -11 -44 -15 -47 -17 -10 -9 -34 11 -34 11 0 20 -4
20 -10 0 -5 21 -2 47 8 32 12 55 28 68 50 11 17 31 34 45 38 52 12 131 56 152
84 19 26 23 28 31 15 5 -11 4 -23 -5 -34z m43 5 c-16 -17 -20 -30 -15 -50 3
-14 10 -29 15 -32 5 -3 9 -27 9 -54 0 -45 -4 -53 -55 -108 -30 -33 -66 -85
-80 -115 -37 -79 -50 -87 -53 -29 -1 44 1 49 34 70 52 34 79 112 57 168 -5 14
-11 12 -35 -17 l-29 -34 27 45 c33 54 132 180 141 180 4 0 -4 -11 -16 -24z
m-591 -116 c0 -5 -5 -10 -11 -10 -5 0 -7 5 -4 10 3 6 8 10 11 10 2 0 4 -4 4
-10z m640 -53 c0 -2 -12 -14 -27 -28 l-28 -24 24 28 c23 25 31 32 31 24z
m-669 -118 c46 -29 92 -38 104 -19 3 6 16 10 28 10 22 0 22 -1 -2 -19 -27 -20
-24 -47 6 -58 10 -4 23 -13 29 -21 9 -12 10 -8 6 17 -4 31 -3 32 24 29 27 -3
29 -6 28 -41 -1 -29 2 -37 14 -35 9 2 19 17 24 34 6 25 14 33 38 36 17 3 33 1
36 -3 8 -14 -19 -59 -37 -59 -26 0 -32 -17 -9 -23 25 -7 21 -19 -60 -172 -63
-117 -71 -125 -136 -125 -17 0 -48 -7 -67 -15 -42 -17 -71 -20 -62 -5 3 6 -1
10 -9 10 -8 0 -22 10 -30 21 -20 29 -39 20 -67 -33 -14 -23 -32 -44 -42 -46
-16 -3 -18 3 -15 44 2 28 -1 48 -8 51 -18 6 -45 -27 -39 -47 8 -25 -14 -36
-33 -16 -15 14 -14 18 6 45 29 40 20 64 -20 56 -29 -7 -30 -6 -26 31 2 32 -1
40 -22 51 -18 9 -20 13 -7 13 19 0 20 2 11 24 -3 9 -11 13 -17 9 -6 -3 -7 -1
-3 6 4 6 12 9 17 6 5 -3 6 1 3 10 -5 11 -1 14 16 13 14 -2 27 5 34 17 6 11 12
22 13 24 2 2 11 -2 20 -10 15 -11 16 -11 6 1 -10 11 -10 17 3 31 15 17 14 18
-8 15 -13 -1 -30 -6 -38 -11 -13 -8 -13 -6 -1 8 16 20 66 22 100 3 13 -7 32
-29 42 -47 10 -19 18 -28 19 -21 0 7 -5 22 -10 33 -9 16 -7 19 15 19 14 0 25
2 25 5 0 2 -13 24 -29 47 -30 44 -34 57 -32 117 l1 33 58 -7 c37 -4 73 -17
103 -36z m185 9 c-3 -13 -5 -25 -5 -27 -1 -3 -6 0 -12 6 -13 13 -5 43 11 43 5
0 8 -10 6 -22z m307 -13 c-7 -21 -12 -19 -10 4 0 11 5 18 9 15 4 -3 5 -11 1
-19z m-183 -30 c0 -9 -6 -12 -15 -9 -8 4 -12 10 -9 15 8 14 24 10 24 -6z m81
-8 c-10 -9 -11 -8 -5 6 3 10 9 15 12 12 3 -3 0 -11 -7 -18z m-23 -42 c-6 -14
-13 -23 -15 -21 -5 5 15 46 22 46 3 0 -1 -11 -7 -25z m312 -50 c-28 -16 -70
-20 -54 -6 8 8 36 16 69 19 6 1 -1 -5 -15 -13z m-347 -30 c-3 -9 -8 -14 -10
-11 -3 3 -2 9 2 15 9 16 15 13 8 -4z m-663 -9 c-6 -9 -19 -12 -28 -8 -17 6
-14 7 37 21 2 1 -2 -5 -9 -13z m-41 -50 c8 -10 9 -16 1 -21 -6 -4 -9 -1 -8 7
2 7 -5 12 -14 12 -10 -1 -15 2 -12 7 8 13 20 11 33 -5z m672 -30 c-14 -36 -22
-33 -9 5 6 16 12 28 14 26 3 -2 0 -16 -5 -31z m1595 -86 c9 0 13 4 10 8 -3 5
10 4 30 -2 31 -10 33 -12 17 -23 -23 -17 -75 -16 -99 2 -13 10 -15 14 -5 15
10 0 7 8 -10 27 l-24 27 33 -27 c19 -15 40 -27 48 -27z m9 -103 c29 -16 27
-17 -65 -11 -105 7 -166 19 -176 35 -4 8 1 9 17 4 23 -7 23 -7 7 12 -31 34
-20 36 17 4 20 -17 39 -31 43 -32 4 0 27 -3 52 -5 l44 -5 -44 40 c-26 23 -36
38 -25 34 18 -6 19 -5 5 13 -8 10 10 -2 40 -27 30 -25 69 -53 85 -62z m65 53
c8 -5 11 -10 5 -10 -5 0 -17 5 -25 10 -8 5 -10 10 -5 10 6 0 17 -5 25 -10z
m-1545 -60 c-10 -11 -22 -20 -28 -20 -5 0 1 9 14 20 31 25 37 25 14 0z m878
-7 c-7 -2 -21 -2 -30 0 -10 3 -4 5 12 5 17 0 24 -2 18 -5z m1058 -44 c38 -40
52 -62 27 -41 -7 5 -24 12 -38 14 -15 2 -25 10 -25 20 0 9 -4 20 -8 24 -9 9
-9 24 -1 24 4 0 24 -19 45 -41z m-2273 19 c-7 -20 -48 -23 -48 -4 0 11 9 16
26 16 16 0 24 -5 22 -12z m52 2 c0 -5 -4 -10 -10 -10 -5 0 -10 5 -10 10 0 6 5
10 10 10 6 0 10 -4 10 -10z m1855 -21 c-11 -4 -28 -8 -39 -8 -10 -1 -27 -11
-37 -23 -11 -11 -19 -17 -19 -12 0 6 5 15 12 22 7 7 8 12 4 12 -5 0 -4 6 2 13
7 8 26 11 54 8 34 -3 39 -6 23 -12z m-958 -36 c23 -16 76 -42 118 -58 42 -15
74 -29 72 -32 -6 -5 -120 33 -158 52 -38 20 -89 65 -89 78 0 9 2 9 8 1 4 -6
26 -24 49 -41z m-1022 7 c-5 -8 -11 -8 -17 -2 -6 6 -7 16 -3 22 5 8 11 8 17 2
6 -6 7 -16 3 -22z m1281 -28 c-5 -4 -86 36 -86 43 0 3 20 -5 45 -17 24 -12 43
-23 41 -26z m627 -12 c11 0 18 -3 14 -6 -10 -11 -273 31 -281 45 -3 4 23 2 57
-6 90 -18 100 -18 87 7 -10 18 -4 17 46 -10 31 -16 66 -30 77 -30z m-1820 5
c-15 -273 -14 -263 -41 -281 -23 -15 -25 -15 -46 9 -28 33 -47 38 -69 19 -16
-14 -19 -14 -27 -2 -6 8 -10 21 -10 28 0 21 39 52 65 52 18 0 28 7 35 25 5 14
14 25 20 25 15 0 12 40 -2 41 -7 1 -22 2 -33 3 -13 0 -21 9 -23 24 -3 18 4 26
32 37 23 10 38 24 42 41 5 20 12 24 33 22 24 -3 26 -7 24 -43z m2194 13 c-3
-8 -6 -5 -6 6 -1 11 2 17 5 13 3 -3 4 -12 1 -19z m-307 -32 c0 -2 -9 -2 -20 1
-11 3 -20 9 -20 15 0 5 9 4 20 -2 11 -6 20 -12 20 -14z m65 -6 c-28 -12 -47
-12 -40 0 3 6 18 10 33 9 24 0 25 -1 7 -9z m-447 -50 c24 -28 61 -59 83 -70
50 -26 51 -35 2 -14 -21 9 -45 17 -53 19 -8 2 -17 4 -20 5 -3 1 -8 2 -12 1 -9
-1 -68 67 -68 79 0 6 5 10 11 10 5 0 7 5 4 10 -3 6 -3 10 2 10 4 0 27 -23 51
-50z m702 -83 c-17 -97 -21 -78 -7 33 7 54 14 82 16 65 1 -16 -2 -61 -9 -98z
m-1723 11 c-2 -18 -4 -4 -4 32 0 36 2 50 4 33 2 -18 2 -48 0 -65z m-74 35 c-9
-73 -54 -114 -104 -94 -23 9 -23 10 7 10 40 1 68 29 84 85 7 25 14 46 16 46 2
0 1 -21 -3 -47z m1500 5 c9 -21 14 -38 12 -38 -7 0 -35 58 -35 71 0 18 6 9 23
-33z m-166 -68 c4 0 -2 6 -13 14 -34 25 -10 24 26 -2 27 -18 29 -23 11 -17
-17 5 -22 4 -16 -5 4 -7 4 -11 -1 -9 -90 37 -122 55 -138 77 -11 14 -13 22 -6
17 10 -6 12 -4 7 9 -4 10 21 -4 58 -33 35 -28 68 -51 72 -51z m78 70 c11 -10
45 -33 75 -50 30 -17 44 -28 30 -25 -35 10 -102 49 -124 74 -24 27 -9 28 19 1z
m-2082 -87 c-7 -2 -13 -9 -13 -14 0 -6 5 -7 10 -4 6 3 10 -1 10 -9 0 -20 -14
-20 -30 -1 -14 17 -5 35 18 34 11 0 12 -3 5 -6z m2097 -8 c0 -8 5 -15 10 -15
6 0 10 8 10 17 0 9 3 14 6 11 6 -6 -19 -86 -37 -120 -6 -11 -26 -37 -46 -59
-19 -21 -32 -43 -28 -49 3 -5 0 -7 -9 -4 -8 3 -29 -2 -48 -11 l-33 -16 29 24
c20 17 24 26 15 29 -8 3 9 16 38 32 39 19 58 37 73 66 22 43 26 75 10 85 -5 3
-10 10 -10 16 0 5 5 9 10 9 6 0 10 -7 10 -15z m-1460 -40 c-13 -14 -28 -25
-33 -25 -5 0 3 12 19 28 35 34 46 31 14 -3z m57 -7 c-8 -75 9 -122 63 -167 27
-23 53 -41 59 -41 6 0 11 -5 11 -10 0 -6 6 -10 13 -8 19 3 57 -12 57 -24 0 -6
-10 -8 -22 -4 -13 3 -31 6 -40 6 -10 0 -46 29 -82 65 -59 60 -65 69 -76 130
-10 52 -10 68 0 80 19 23 22 18 17 -27z m1729 -33 c-3 -45 -136 -302 -154
-298 -6 2 -9 -3 -6 -10 3 -8 -15 -32 -40 -55 -44 -40 -75 -56 -60 -29 4 7 3 9
-2 4 -5 -5 -9 -12 -9 -15 0 -8 -244 -248 -271 -266 -11 -7 -35 -12 -54 -11
-28 1 -47 -8 -95 -44 -92 -71 -107 -83 -155 -131 -71 -71 -101 -91 -40 -26 30
32 97 92 148 133 77 62 104 92 164 181 39 59 95 137 124 173 62 79 188 195
259 240 64 41 135 99 135 111 0 5 -28 -12 -62 -39 l-63 -47 34 39 c19 22 46
51 61 65 15 14 35 40 44 58 14 26 19 30 30 20 9 -8 13 -29 12 -53z m-619 35
c-3 -11 -1 -18 4 -14 22 13 6 -20 -21 -46 -29 -27 -110 -56 -110 -39 0 5 -8 9
-19 9 -25 0 -48 27 -34 41 8 8 19 5 39 -7 l29 -18 -19 22 c-19 22 -19 22 3 22
12 0 19 -4 16 -10 -9 -15 28 -12 51 5 12 8 24 11 28 8 3 -3 6 0 6 8 0 14 18
39 28 39 2 0 2 -9 -1 -20z m-933 -16 c3 -8 2 -12 -4 -9 -6 3 -10 10 -10 16 0
14 7 11 14 -7z m228 -74 c19 0 43 6 53 14 26 19 53 9 28 -10 -29 -22 -125 -18
-156 6 -15 12 -24 27 -20 35 4 11 12 8 33 -15 21 -22 37 -30 62 -30z m-802
-61 c29 -62 43 -104 42 -126 -2 -27 2 -35 23 -45 14 -6 25 -15 25 -20 0 -5 4
-7 9 -3 13 7 32 -30 25 -48 -3 -8 2 -17 10 -20 9 -4 16 -1 16 5 0 21 149 -147
150 -168 0 -12 7 -27 15 -34 23 -19 18 -26 -18 -27 -19 -1 -52 -10 -74 -21
-29 -15 -43 -18 -51 -10 -16 16 -42 2 -42 -22 0 -18 3 -19 23 -10 17 9 15 6
-6 -10 -15 -12 -25 -25 -22 -30 7 -11 -90 -70 -116 -70 -11 0 -28 -9 -37 -19
-10 -11 -48 -37 -87 -58 -38 -20 -87 -53 -109 -73 -21 -19 -42 -34 -47 -33 -4
2 -6 -3 -3 -10 2 -7 -10 -35 -28 -63 l-33 -50 -27 28 c-16 16 -28 34 -28 41
-1 13 -83 67 -103 67 -6 0 4 11 22 24 20 15 28 27 21 31 -6 4 -20 -1 -30 -10
-17 -16 -19 -15 -31 7 -11 21 -11 22 5 9 23 -19 45 1 26 24 -11 13 -10 14 4 9
9 -3 16 -2 16 4 0 14 -52 22 -73 10 -10 -5 -21 -7 -25 -4 -3 3 0 6 6 6 7 0 12
7 12 15 0 11 7 14 24 9 13 -3 27 -1 31 6 4 7 -2 14 -15 17 -12 3 -19 11 -16
19 4 11 -3 13 -30 9 -25 -3 -40 1 -53 14 -18 18 -18 19 0 32 28 20 23 32 -12
25 -27 -5 -30 -4 -23 16 9 30 58 71 62 52 2 -8 8 -14 14 -14 25 0 148 42 154
52 5 8 1 9 -12 4 -10 -4 -34 -10 -51 -13 -28 -5 -33 -3 -33 14 0 10 9 36 20
57 10 22 17 43 13 49 -14 22 -7 53 15 71 l24 19 -22 17 c-19 15 -20 18 -6 29
20 17 21 35 1 27 -9 -3 -15 0 -15 9 0 8 6 12 13 9 25 -9 14 27 -15 47 -28 20
-38 61 -18 74 6 4 8 10 5 15 -6 10 14 26 44 33 27 7 74 -14 93 -42 9 -12 29
-20 59 -22 45 -4 46 -3 39 21 -12 42 12 99 42 100 11 0 5 -84 -7 -92 -13 -9
-4 -17 32 -27 24 -7 37 -5 59 10 21 14 24 19 12 19 -13 0 -18 8 -18 28 0 29
-31 68 -43 55 -4 -3 -7 -1 -7 5 0 19 31 42 58 42 15 0 34 4 42 10 21 13 32 0
80 -101z m815 81 c8 -13 -15 -13 -35 0 -12 8 -11 10 7 10 12 0 25 -4 28 -10z
m681 -44 c-19 -46 -5 -47 40 -2 41 41 46 22 9 -42 -13 -23 -19 -40 -14 -36 8
4 9 -1 4 -17 -9 -29 1 -21 32 28 14 21 21 29 17 18 -88 -245 -87 -242 -167
-316 -36 -34 -38 -38 -26 -60 l13 -24 7 25 c7 23 7 23 8 -7 1 -17 5 -34 11
-38 5 -3 6 -13 3 -21 -4 -11 -9 -12 -16 -5 -19 19 -27 12 -27 -27 0 -31 -7
-45 -36 -73 -34 -32 -35 -33 -30 -9 4 14 8 51 10 83 2 31 9 64 16 72 28 34 0
19 -99 -51 -130 -93 -161 -104 -225 -76 -74 33 -271 168 -305 209 -18 21 -43
62 -57 90 -25 55 -78 237 -72 254 7 20 60 -64 74 -117 26 -100 15 -94 179 -94
l145 0 0 -70 c0 -69 0 -70 -27 -71 l-28 -1 28 -11 c15 -6 27 -19 27 -29 0 -15
-9 -18 -56 -18 -66 0 -67 -10 -5 -58 66 -50 86 -51 129 -7 27 27 31 34 14 25
-23 -11 -23 -11 -20 42 l3 53 86 -4 c58 -2 89 1 94 9 5 8 -3 10 -27 9 -18 -2
-61 -2 -95 -1 l-63 2 0 40 c0 42 7 49 51 54 31 3 65 22 72 39 3 9 -6 13 -34
14 -22 1 -44 5 -49 8 -13 8 -13 42 0 50 6 3 10 17 10 29 0 13 9 35 20 49 l21
26 36 -25 c20 -13 44 -24 55 -24 11 0 29 -5 41 -11 21 -11 21 -11 6 7 -18 21
-15 44 6 44 7 0 26 11 42 24 17 14 46 25 77 28 34 4 56 13 74 32 33 32 37 28
18 -18z m-811 -16 c10 -11 16 -20 13 -20 -3 0 -13 9 -23 20 -10 11 -16 20 -13
20 3 0 13 -9 23 -20z m-527 -40 c42 -51 37 -51 -13 0 -21 22 -35 40 -30 40 6
0 25 -18 43 -40z m407 14 c9 -15 12 -23 6 -20 -11 7 -35 46 -28 46 3 0 12 -12
22 -26z m170 -24 c10 -11 16 -20 13 -20 -3 0 -13 9 -23 20 -10 11 -16 20 -13
20 3 0 13 -9 23 -20z m-1242 -30 c-3 -11 -9 -20 -15 -20 -5 0 -4 9 2 20 6 11
12 20 14 20 2 0 2 -9 -1 -20z m3053 -26 c-4 -9 -9 -15 -11 -12 -3 3 -3 13 1
22 4 9 9 15 11 12 3 -3 3 -13 -1 -22z m-3063 -69 l-6 -30 -8 29 c-9 31 -2 53
11 39 5 -4 6 -21 3 -38z m722 35 c-3 -5 -12 -10 -18 -10 -7 0 -6 4 3 10 19 12
23 12 15 0z m2339 2 c3 -5 -1 -9 -9 -9 -8 0 -12 4 -9 9 3 4 7 8 9 8 2 0 6 -4
9 -8z m-234 -6 c0 -3 -4 -8 -10 -11 -5 -3 -10 -1 -10 4 0 6 5 11 10 11 6 0 10
-2 10 -4z m-2095 -16 c-3 -5 -12 -10 -18 -10 -7 0 -6 4 3 10 19 12 23 12 15 0z
m2338 -43 c-2 -4 -11 -3 -19 4 -12 10 -12 14 -2 20 13 9 30 -10 21 -24z m-283
-21 c0 -11 -19 -15 -25 -6 -3 5 1 10 9 10 9 0 16 -2 16 -4z m-2850 -152 c0 -8
-4 -14 -10 -14 -5 0 -10 9 -10 21 0 11 5 17 10 14 6 -3 10 -13 10 -21z m3053
-5 c-5 -5 -17 -3 -29 6 -14 11 -15 14 -3 9 10 -3 21 0 25 7 6 11 8 11 12 0 2
-7 0 -17 -5 -22z m-673 -49 c-7 -16 -26 -40 -44 -54 -17 -14 -96 -88 -174
-165 -79 -77 -158 -149 -176 -159 l-32 -19 10 39 c10 36 9 42 -12 58 l-22 18
46 41 c27 23 65 45 88 51 23 6 49 15 59 20 21 13 21 12 -2 -36 -18 -36 -22
-38 -56 -36 -21 2 -46 -3 -61 -13 -34 -22 -26 -27 29 -16 26 5 44 5 41 0 -10
-17 10 -9 33 13 13 12 23 29 23 39 0 22 46 77 56 67 4 -5 1 -16 -7 -26 -8 -10
-5 -7 6 6 11 13 32 37 46 52 15 16 25 31 22 33 -3 4 28 32 89 78 15 11 27 23
26 27 -1 4 3 16 8 27 8 19 9 19 12 2 2 -10 -2 -32 -8 -47z m-363 -2 c-3 -8 -6
-5 -6 6 -1 11 2 17 5 13 3 -3 4 -12 1 -19z m-1058 -56 c3 -1 -1 -8 -8 -15 -10
-9 -17 -6 -37 18 -33 41 -30 50 9 23 17 -13 34 -24 36 -26z m2168 22 c-3 -3
-12 -4 -19 -1 -8 3 -5 6 6 6 11 1 17 -2 13 -5z m-1223 -56 c-4 -13 -7 -32 -6
-43 1 -18 0 -18 -9 -3 -6 11 -5 25 3 42 14 32 22 34 12 4z m-979 -27 c-17 -17
-85 -42 -85 -31 0 5 -15 10 -32 11 -29 0 -31 1 -11 9 12 5 35 5 51 1 19 -6 36
-4 53 5 29 16 36 17 24 5z m1434 -26 c28 -19 56 -35 63 -36 10 0 10 -2 1 -6
-11 -4 -133 63 -133 73 0 11 23 0 69 -31z m-471 -44 c3 -8 -1 -12 -9 -9 -7 2
-15 10 -17 17 -3 8 1 12 9 9 7 -2 15 -10 17 -17z m732 -72 c69 -39 144 -80
168 -90 55 -24 186 -154 196 -194 4 -16 9 -55 11 -85 2 -30 11 -84 19 -119 8
-36 13 -69 9 -74 -5 -9 26 -101 33 -94 2 2 -3 21 -11 42 -9 20 -14 39 -12 41
2 3 21 -34 41 -81 32 -75 36 -90 27 -118 -6 -18 -15 -52 -19 -77 -8 -42 -7
-47 20 -70 29 -25 36 -54 18 -65 -6 -4 -10 -16 -8 -28 2 -13 -2 -21 -9 -20 -7
2 -10 -4 -7 -12 4 -9 0 -15 -7 -15 -12 0 -12 -2 0 -9 10 -6 1 -16 -35 -36 -27
-16 -61 -39 -75 -52 -19 -18 -29 -21 -34 -13 -4 7 -10 8 -14 4 -3 -5 -19 -16
-35 -24 -16 -8 -34 -24 -40 -35 -6 -11 -24 -37 -40 -58 -45 -60 -53 -32 -16
54 23 54 33 92 35 139 1 36 3 68 4 71 0 4 26 26 57 49 30 23 54 44 51 46 -6 6
-182 -58 -236 -86 l-43 -21 26 38 c14 21 26 46 26 56 0 22 92 207 132 265 38
55 78 146 77 175 0 16 -6 9 -20 -23 -11 -25 -29 -54 -40 -65 -24 -23 -119
-185 -119 -201 0 -14 -23 -34 -74 -64 l-39 -24 7 34 c3 19 11 37 17 41 7 4 8
12 4 19 -5 8 -4 11 2 7 6 -4 13 0 17 8 3 8 1 17 -4 20 -16 10 -12 28 4 22 18
-7 53 55 76 138 10 33 21 69 25 80 5 16 3 15 -14 -5 -11 -14 -21 -31 -21 -38
0 -7 -4 -11 -9 -8 -8 5 -71 -120 -71 -142 0 -7 -4 -20 -9 -30 -5 -9 -26 -53
-46 -97 -21 -44 -47 -90 -58 -102 -12 -13 -21 -38 -22 -60 -1 -25 -6 -37 -14
-35 -11 2 -39 -22 -59 -53 -4 -5 -25 -19 -46 -30 -22 -11 -44 -25 -50 -30 -15
-15 -73 -55 -79 -55 -3 0 -4 7 -3 16 0 9 -7 18 -16 19 -10 2 -18 -3 -18 -10 0
-7 -6 -16 -12 -18 -8 -4 -4 -8 10 -12 12 -4 22 -12 22 -19 -1 -15 -253 -276
-268 -276 -6 0 -11 -8 -9 -17 1 -10 -2 -19 -8 -21 -5 -1 -13 19 -16 45 -3 27
-7 38 -7 26 -1 -15 -13 -28 -34 -38 -18 -8 -53 -26 -78 -40 -25 -14 -55 -25
-67 -25 -12 0 -25 -5 -28 -11 -4 -6 -14 -7 -24 -3 -9 4 -28 6 -42 5 -14 0 -38
8 -52 19 l-26 21 -9 -33 c-5 -18 -15 -32 -22 -30 -6 1 -17 -2 -24 -7 -18 -15
-38 3 -39 35 -1 16 -7 34 -14 39 -7 6 -14 33 -16 60 l-3 50 -2 -57 c-1 -32 -6
-58 -12 -58 -5 0 -7 8 -3 17 3 10 3 15 -1 12 -4 -4 -8 -16 -11 -27 -2 -15 0
-19 11 -15 16 6 18 -15 4 -37 -8 -13 -10 -12 -10 3 0 10 -4 15 -10 12 -9 -6
-14 8 -11 28 0 4 -3 7 -8 7 -5 0 -12 11 -15 25 -9 34 -26 31 -26 -4 0 -33 -17
-51 -26 -27 -3 9 -17 16 -30 16 -22 0 -23 -1 -8 -35 18 -43 18 -42 -3 -42 -20
0 -33 14 -33 39 0 9 -18 49 -41 88 -35 62 -40 77 -34 111 4 21 16 50 27 64 11
14 18 29 14 32 -3 4 -6 1 -6 -6 0 -8 -6 -11 -16 -7 -8 3 -13 2 -9 -3 7 -13 -5
-42 -16 -35 -5 3 -9 -2 -9 -11 0 -9 -5 -13 -11 -10 -6 4 -8 14 -5 24 4 9 -2 7
-14 -8 -24 -27 -24 -37 -6 -72 9 -18 10 -32 4 -43 -6 -10 -8 -29 -5 -42 5 -29
0 -30 -33 -4 -26 21 -45 26 -35 11 3 -5 1 -12 -3 -15 -5 -3 -7 -17 -4 -31 5
-27 -6 -33 -26 -13 -9 9 -12 8 -12 -5 0 -9 8 -20 18 -26 14 -8 15 -12 3 -23
-10 -9 -12 -10 -7 0 4 6 2 12 -4 12 -6 0 -17 15 -24 33 -16 38 -38 191 -30
210 2 8 -7 58 -22 113 -14 54 -28 108 -31 120 -3 14 9 35 39 70 60 67 108 139
108 161 -1 15 -4 13 -16 -7 l-15 -25 7 24 c5 21 4 22 -9 10 -8 -8 -13 -18 -10
-22 3 -5 -4 -4 -15 2 -30 16 -40 13 -18 -4 19 -14 19 -15 -7 -15 -25 0 -27 2
-17 21 7 11 9 23 6 26 -2 3 -12 -11 -20 -31 -11 -26 -21 -36 -37 -36 -13 0
-19 -5 -16 -13 2 -6 -6 -20 -19 -30 -16 -12 -24 -14 -24 -6 0 7 -12 2 -27 -12
l-26 -24 16 24 c12 18 13 28 5 41 -9 14 -6 24 14 51 14 19 33 49 42 67 10 20
24 32 37 32 17 0 18 3 9 20 -6 11 -16 20 -23 20 -13 0 -87 -118 -87 -138 0
-21 -17 -13 -24 11 -3 12 -6 43 -6 69 0 43 5 52 55 106 55 60 60 74 24 65 -24
-7 -47 -43 -27 -43 7 0 4 -6 -7 -12 -11 -6 -28 -21 -38 -32 -9 -12 -16 -15
-15 -7 2 7 -3 16 -11 19 -10 3 -12 0 -8 -12 4 -10 3 -14 -3 -11 -5 3 -8 22 -8
43 1 37 -21 157 -27 150 -2 -2 0 -32 5 -67 8 -58 0 -185 -16 -263 -10 -47 -31
-33 -37 25 -8 72 -34 183 -53 222 -8 18 -14 39 -13 47 4 17 -24 68 -50 92 -17
16 -15 6 15 -58 19 -43 33 -80 31 -82 -6 -6 -51 68 -49 79 2 5 -2 6 -7 3 -12
-8 -20 5 -36 62 -8 26 -21 67 -30 91 -10 28 -12 46 -6 50 6 4 6 12 1 21 -14
21 -12 30 4 30 8 0 18 5 21 10 4 6 -12 10 -40 10 l-46 0 16 -31 c9 -17 14 -33
11 -37 -3 -3 -6 0 -6 6 0 6 -16 32 -36 57 -19 26 -32 45 -27 42 4 -3 14 2 21
9 12 13 10 14 -12 8 -41 -10 -49 4 -21 38 41 49 27 69 -16 23 -13 -13 -28 -25
-33 -25 -24 0 78 75 156 115 97 50 160 69 177 52 15 -15 14 -23 -5 -41 -16
-16 -90 -23 -80 -8 5 8 -47 5 -74 -5 -8 -3 47 -18 123 -33 142 -28 189 -49
157 -71 -13 -9 -13 -10 2 -6 9 3 24 -3 34 -14 13 -15 14 -19 3 -19 -8 -1 4 -7
26 -15 55 -20 122 -19 193 4 l60 18 111 -59 110 -59 -6 -95 -6 -95 30 -32 c17
-18 33 -39 36 -47 3 -9 6 -5 6 11 1 14 6 30 12 36 8 8 8 17 0 31 -16 30 -13
105 5 170 13 43 15 83 12 173 -6 134 5 164 46 123 23 -23 21 -168 -4 -269 -23
-92 -24 -129 -9 -190 8 -33 8 -53 0 -76 -24 -68 -25 -188 -2 -296 11 -56 21
-130 21 -165 0 -35 5 -81 11 -103 19 -76 27 -150 17 -168 -26 -49 -58 8 -58
104 0 33 -5 61 -12 65 -7 5 -8 3 -3 -6 5 -9 4 -11 -4 -6 -6 4 -11 13 -10 19 1
7 1 44 0 82 l-1 70 -47 1 -47 2 23 -19 c13 -11 32 -19 42 -19 17 0 19 -8 18
-62 0 -35 -3 -57 -6 -50 -2 6 -9 12 -15 12 -6 0 -4 -8 5 -18 22 -24 21 -28 -3
-54 -27 -29 -25 -45 5 -52 19 -5 25 -13 26 -34 l1 -27 7 30 7 30 8 -35 c13
-52 27 -69 53 -59 29 11 34 33 23 104 -6 33 -15 103 -20 155 -6 52 -16 136
-24 185 -19 117 -22 270 -5 259 8 -4 9 -3 5 5 -5 7 6 17 30 27 29 12 34 18 23
26 -11 7 -11 11 -1 15 6 2 12 9 12 15 0 6 -8 4 -18 -5 -10 -10 -22 -17 -25
-17 -8 0 -5 216 3 223 3 3 30 -1 60 -9 30 -8 70 -13 90 -13 28 1 24 3 -20 10
-88 14 -101 19 -94 31 5 8 1 9 -11 4 -15 -5 -16 -4 -5 9 23 28 134 45 150 23
7 -9 70 -11 96 -3 14 4 21 2 21 -8 0 -11 -17 -16 -66 -20 -36 -3 -82 -4 -101
-2 -19 1 -42 -1 -50 -4 -8 -3 41 -8 110 -11 105 -4 124 -7 121 -20 -10 -37 0
-98 24 -143 14 -27 25 -64 25 -83 0 -33 -1 -33 -50 -40 -27 -4 -50 -10 -50
-15 0 -5 7 -9 15 -9 8 0 15 -4 15 -10 0 -5 -6 -10 -12 -10 -9 0 -9 -3 1 -9 8
-5 12 -18 9 -29 -4 -13 0 -23 9 -26 11 -4 13 -1 8 14 -4 11 -2 20 4 20 6 0 12
-15 13 -32 1 -18 4 -6 7 27 6 59 7 60 34 57 16 -2 34 2 41 7 10 8 13 4 14 -20
1 -46 12 -49 12 -3 -1 46 -21 134 -44 187 -13 30 -15 46 -6 75 5 20 10 85 10
143 0 141 8 197 31 209 29 16 52 1 44 -29 -6 -25 -26 -274 -26 -333 0 -15 9
-66 21 -112 17 -70 22 -131 29 -377 8 -284 8 -288 11 -114 1 99 2 186 1 193
-3 23 39 13 51 -13 13 -28 30 -32 52 -10 19 20 27 19 20 -2 -5 -14 -4 -15 4
-4 7 9 11 10 17 2 4 -7 2 -17 -3 -24 -7 -8 -5 -16 5 -26 13 -12 14 -11 9 7 -4
11 -2 23 4 27 25 15 -75 65 -131 65 -28 0 -28 0 -27 68 0 38 -3 82 -6 99 -4
17 -3 33 1 36 5 3 7 24 5 46 -2 23 -8 38 -13 36 -5 -3 -11 7 -15 22 -3 15 -10
43 -16 60 -7 23 -6 43 3 66 10 30 20 37 68 52 65 20 147 60 156 75 4 6 -15 0
-42 -14 -61 -31 -154 -68 -160 -63 -5 5 82 57 95 57 6 0 30 11 53 25 42 24
114 37 79 15 -8 -5 -11 -10 -7 -10 15 0 71 32 122 70 67 50 128 80 164 80 39
0 157 56 135 64 -37 14 -100 4 -196 -34 -56 -22 -103 -38 -105 -36 -7 7 185
109 209 110 33 1 23 13 -28 31 -23 8 -31 14 -19 15 11 0 76 -32 145 -71z
m-2702 -64 c-3 -3 -9 2 -12 12 -6 14 -5 15 5 6 7 -7 10 -15 7 -18z m60 6 c-4
-22 -25 -24 -30 -4 -4 13 1 19 14 19 11 0 17 -6 16 -15z m47 -25 c18 -13 18
-15 2 -30 -9 -10 -17 -13 -17 -7 0 6 -10 11 -22 12 -13 0 -17 3 -10 6 6 2 12
11 12 19 0 18 11 18 35 0z m1845 -5 c-5 -11 -15 -23 -21 -27 -6 -3 -3 5 6 20
20 30 30 35 15 7z m-244 -76 c26 -20 40 -19 23 2 -11 13 -8 13 16 -3 l29 -19
-48 -3 c-57 -4 -76 2 -76 23 0 19 30 19 56 0z m-1517 -31 c-14 -18 -24 -11
-15 11 3 9 11 13 16 10 8 -5 7 -11 -1 -21z m1640 10 c-13 -15 -101 -64 -116
-64 -4 0 17 14 47 31 30 16 59 34 64 39 16 16 20 11 5 -6z m-1383 -59 c-3 -9
-10 -14 -15 -11 -5 3 -4 -5 2 -19 9 -19 13 -21 16 -8 2 9 22 -39 45 -108 24
-68 46 -132 51 -143 8 -18 7 -18 -17 -2 -13 9 -27 14 -30 10 -8 -7 -46 48 -60
87 -8 23 -13 28 -20 17 -7 -9 -8 -7 -5 10 3 12 1 20 -3 17 -11 -7 -17 173 -6
192 7 13 11 13 29 -5 12 -12 17 -27 13 -37z m1420 30 c-11 -8 -29 -15 -39 -15
-16 0 -17 3 -7 15 7 8 24 15 39 15 25 -1 25 -1 7 -15z m-1485 -76 c-8 -38 -9
-40 -10 -12 -1 17 2 39 5 48 11 29 14 10 5 -36z m162 -52 c22 -39 42 -82 43
-97 1 -15 5 -38 9 -51 5 -19 3 -18 -13 7 -29 46 -53 94 -47 94 3 0 14 -15 25
-32 11 -18 20 -29 20 -24 0 16 -42 76 -49 71 -8 -5 -38 52 -52 98 -13 45 15
16 64 -66z m871 62 c19 -17 -2 -19 -37 -4 -21 8 -37 17 -37 20 0 7 64 -7 74
-16z m1676 -50 l-11 -24 5 24 c3 14 0 32 -6 40 -11 14 -10 14 5 0 14 -12 16
-20 7 -40z m-2742 -18 c-2 -22 0 -37 4 -35 5 3 9 -1 9 -8 1 -7 5 3 9 22 l7 35
2 -32 c0 -18 10 -56 22 -85 28 -72 56 -162 70 -228 6 -30 21 -74 34 -97 15
-27 19 -45 13 -51 -7 -7 -27 10 -60 49 -27 33 -60 65 -72 70 -14 7 -30 34 -49
87 -44 121 -46 131 -26 187 10 28 20 67 24 88 8 49 18 48 13 -2z m1579 -103
c-3 -7 -5 -2 -5 12 0 14 2 19 5 13 2 -7 2 -19 0 -25z m17 -44 c3 -8 2 -12 -4
-9 -6 3 -10 10 -10 16 0 14 7 11 14 -7z m-1724 -71 c0 -10 -6 -13 -16 -9 -9 3
-21 6 -27 6 -7 0 -3 7 7 15 21 16 36 11 36 -12z m376 -80 c16 -48 20 -72 13
-85 -12 -22 -33 -24 -25 -3 3 9 -10 46 -28 84 -31 61 -33 68 -18 78 23 15 32
4 58 -74z m-386 27 c0 -5 -4 -10 -9 -10 -6 0 -13 5 -16 10 -3 6 1 10 9 10 9 0
16 -4 16 -10z m184 -179 c24 -37 55 -77 70 -90 26 -24 36 -49 14 -35 -7 4 -8
3 -4 -5 4 -6 11 -9 16 -6 4 3 20 -10 34 -27 14 -18 38 -45 53 -60 22 -22 26
-35 27 -87 1 -56 0 -60 -19 -54 -11 3 -30 6 -42 5 -23 -2 -67 44 -57 59 3 5 0
9 -5 9 -14 0 -14 -6 1 -33 6 -13 -9 -3 -38 24 -27 25 -62 54 -77 63 -15 10
-44 41 -64 70 -20 28 -50 66 -65 84 -15 18 -28 44 -28 58 0 14 -7 41 -16 60
-16 33 -16 36 7 79 26 50 40 54 15 4 -15 -31 -14 -49 5 -49 5 0 9 8 9 18 1 9
7 1 14 -18 7 -19 20 -51 28 -70 9 -19 28 -68 43 -108 l27 -73 21 22 c20 22 20
23 2 53 -38 65 -43 84 -49 186 l-6 105 21 -59 c11 -33 40 -89 63 -125z m-196
148 c-2 -6 -6 -9 -9 -7 -3 2 -14 -3 -23 -11 -13 -11 -20 -11 -28 -3 -9 9 -7
12 10 12 12 0 22 5 22 10 0 6 7 10 16 10 9 0 14 -5 12 -11z m-88 -28 c0 -6 -4
-13 -10 -16 -5 -3 -10 1 -10 9 0 9 5 16 10 16 6 0 10 -4 10 -9z m57 -38 c-3
-3 -11 -2 -17 2 -9 6 -9 10 1 16 14 8 27 -7 16 -18z m-17 -28 c0 -8 -4 -15
-10 -15 -5 0 -7 7 -4 15 4 8 8 15 10 15 2 0 4 -7 4 -15z m504 -91 c15 -28 20
-41 10 -33 -18 15 -61 94 -46 85 6 -3 22 -27 36 -52z m-456 -109 c0 -22 -3
-18 -9 15 -4 25 -7 59 -7 75 0 22 3 18 9 -15 4 -25 7 -58 7 -75z m457 -94 c19
-36 33 -66 31 -68 -7 -8 -77 60 -92 90 -9 16 -14 38 -11 48 3 10 -2 28 -10 41
-8 13 0 7 17 -12 17 -19 46 -64 65 -99z m2106 92 c-11 -16 -30 -39 -42 -53
l-21 -25 16 25 c9 14 24 37 34 52 9 16 21 28 25 28 5 0 -1 -12 -12 -27z
m-2595 -35 c-4 -24 -3 -29 4 -18 8 13 10 12 10 -2 0 -14 -9 -18 -40 -18 -22 0
-40 5 -40 11 0 5 5 7 10 4 6 -3 10 3 10 14 0 18 23 40 44 41 5 0 6 -15 2 -32z
m139 -71 c17 -6 50 -28 74 -49 24 -21 48 -38 53 -38 5 0 24 -11 41 -24 18 -14
51 -33 73 -43 22 -10 59 -33 82 -51 23 -19 42 -30 42 -25 0 4 5 1 10 -7 5 -8
9 -28 9 -45 -1 -21 -3 -24 -6 -10 -3 11 -10 25 -15 30 -8 7 -8 6 -3 -4 5 -9 4
-12 -3 -7 -7 4 -12 13 -12 21 0 8 -5 17 -12 21 -7 5 -8 3 -3 -6 6 -10 4 -12
-11 -6 -28 11 -126 36 -141 36 -7 0 -38 16 -69 36 -43 28 -53 38 -43 46 12 8
11 9 -1 5 -13 -4 -90 28 -90 36 0 2 16 1 35 -1 77 -9 8 17 -85 32 -39 7 -75
22 -89 40 -12 14 -10 16 10 16 13 0 31 5 39 10 16 11 68 5 115 -13z m-195 -22
c-7 -9 -15 -13 -19 -10 -3 3 1 10 9 15 21 14 24 12 10 -5z m3140 -17 c22 -36
20 -50 -15 -120 -20 -40 -21 -49 -9 -65 25 -33 15 -49 -12 -18 l-25 30 16 -32
c15 -31 15 -33 -4 -33 -11 0 -23 -4 -26 -10 -7 -12 2 -12 30 -1 11 5 28 4 39
-1 16 -9 18 -18 13 -58 -8 -67 -64 -162 -100 -168 -26 -4 -21 4 28 49 25 23
45 46 45 52 0 7 -4 7 -12 -1 -18 -18 -32 -14 -17 5 8 10 -19 -9 -58 -42 -40
-32 -73 -63 -73 -67 0 -4 -7 -8 -16 -8 -8 0 -13 -4 -9 -9 3 -5 -5 -17 -17 -25
-17 -12 -24 -13 -30 -3 -6 9 -8 8 -8 -3 0 -13 -1 -13 -10 0 -9 13 -11 13 -20
0 -5 -8 -10 -21 -10 -28 0 -7 -4 -10 -10 -7 -5 3 -10 1 -10 -6 0 -7 -8 -5 -20
6 -21 19 -27 11 -11 -15 14 -21 3 -31 -19 -17 -36 21 -35 22 118 160 23 21 39
43 36 49 -4 6 -3 8 2 5 6 -3 16 -2 24 4 12 7 12 9 -3 9 -10 0 -16 4 -12 10 10
16 54 -10 48 -28 -4 -10 -2 -13 6 -8 6 4 10 24 9 44 -1 19 3 37 8 39 24 8 49
32 41 39 -21 22 -167 -96 -167 -135 0 -6 -16 -21 -36 -35 -20 -13 -61 -48 -90
-76 -30 -29 -54 -48 -54 -43 0 5 11 20 25 33 37 34 31 45 -8 16 -41 -31 -47
-32 -47 -6 0 11 18 33 43 52 24 18 74 61 113 95 38 34 85 75 104 92 19 17 27
28 18 25 -12 -4 -18 -1 -18 10 0 9 -6 16 -12 16 -9 0 -14 19 -15 59 l-1 59 31
-9 c18 -5 37 -9 44 -9 7 0 36 36 64 80 29 44 58 80 66 80 7 0 22 -15 33 -32z
m-2408 -20 c-7 -7 -12 -8 -12 -2 0 14 12 26 19 19 2 -3 -1 -11 -7 -17z m1778
6 c0 -8 -5 -12 -10 -9 -11 7 -26 -22 -16 -32 3 -3 13 0 22 8 16 13 16 10 10
-36 -10 -63 -31 -103 -53 -101 -9 0 -19 -7 -21 -16 -5 -26 15 -22 43 8 19 20
25 23 25 11 0 -9 -18 -31 -40 -48 -22 -18 -40 -38 -40 -46 0 -7 -4 -13 -10
-13 -5 0 -7 8 -3 18 3 9 -3 5 -15 -10 -25 -29 -28 -43 -9 -32 6 4 -22 -25 -63
-63 -41 -39 -76 -67 -78 -62 -2 5 -15 9 -28 9 -24 0 -25 2 -23 63 l2 62 65 63
c43 41 80 66 106 74 23 7 51 18 63 26 l22 14 -20 21 c-27 29 -21 57 20 84 40
27 51 29 51 7z m-2355 -73 c42 -5 83 -15 91 -22 13 -11 11 -14 -17 -26 -44
-18 -49 -16 -14 7 17 11 25 20 18 20 -6 0 -14 -4 -18 -9 -3 -6 -15 -8 -26 -6
-11 2 -27 1 -35 -2 -12 -4 -12 -8 -2 -21 10 -13 6 -12 -17 3 -16 10 -49 30
-72 43 -24 13 -43 28 -43 34 0 6 -6 8 -14 5 -8 -3 -17 1 -20 8 -4 11 6 10 44
-5 27 -11 83 -24 125 -29z m641 4 c6 -23 1 -35 -40 -110 l-16 -30 0 53 c0 81
41 146 56 87z m-789 -57 c-3 -8 -6 -5 -6 6 -1 11 2 17 5 13 3 -3 4 -12 1 -19z
m46 -67 c35 -46 43 -50 120 -71 45 -11 98 -26 117 -32 34 -11 34 -12 10 -18
-14 -3 -56 -4 -94 0 -68 6 -70 7 -115 57 -41 46 -88 113 -79 113 2 0 21 -22
41 -49z m250 -10 c30 -27 89 -112 84 -118 -2 -2 -24 8 -48 21 -24 14 -66 30
-94 36 -41 9 -115 44 -115 55 0 2 56 -7 116 -20 29 -6 29 -6 8 12 -11 10 -31
26 -45 36 l-24 17 45 -6 c29 -4 55 -16 73 -33z m163 -13 c57 -28 61 -42 12
-46 -54 -5 -115 15 -151 49 l-32 30 62 -4 c37 -3 81 -15 109 -29z m2059 -42
c9 -55 0 -83 -28 -92 -12 -4 -39 -20 -59 -37 -21 -17 -40 -28 -43 -25 -3 2 6
11 20 18 14 7 25 17 25 22 0 11 -34 -6 -77 -39 -18 -13 -33 -19 -33 -13 0 6
-5 8 -10 5 -6 -4 -7 -11 -4 -17 4 -7 2 -8 -4 -4 -7 4 -12 1 -12 -8 0 -20 -17
-29 -26 -15 -4 8 -3 9 4 5 7 -4 12 -1 12 7 0 16 78 84 121 106 19 9 26 21 27
42 1 47 12 69 38 75 13 3 24 10 24 16 0 5 4 7 9 3 6 -3 13 -25 16 -49z m394
20 c10 -12 4 -20 -31 -44 -24 -16 -66 -41 -94 -55 -28 -14 -72 -42 -98 -62
-27 -20 -49 -35 -50 -33 -1 2 -7 15 -13 30 -14 32 -5 42 87 86 36 18 85 45
110 61 51 33 72 37 89 17z m-2165 -103 c-25 -18 -28 -9 -7 23 16 24 18 26 22
9 2 -10 -5 -25 -15 -32z m1338 15 c-7 -7 -12 -8 -12 -2 0 14 12 26 19 19 2 -3
-1 -11 -7 -17z m-1813 -25 c15 -10 41 -15 68 -14 58 2 115 -14 137 -38 16 -18
16 -19 -15 -30 -27 -9 -39 -8 -78 11 -25 12 -54 29 -63 37 -21 16 -24 2 -5
-19 6 -8 -6 1 -28 20 -22 19 -44 38 -49 42 -20 16 10 8 33 -9z m891 -29 c24
-38 23 -51 -2 -31 -14 11 -34 67 -24 67 2 0 14 -16 26 -36z m920 32 c0 -2 -7
-7 -16 -10 -8 -3 -12 -2 -9 4 6 10 25 14 25 6z m27 -28 c-3 -8 -6 -5 -6 6 -1
11 2 17 5 13 3 -3 4 -12 1 -19z m63 13 c0 -6 -4 -13 -10 -16 -5 -3 -10 1 -10
9 0 9 5 16 10 16 6 0 10 -4 10 -9z m-1051 -59 c3 -1 0 -7 -6 -13 -7 -7 -17 -2
-32 17 -30 38 -26 52 7 23 15 -13 29 -25 31 -27z m96 18 c9 -16 13 -30 11 -30
-3 0 -14 14 -26 30 -12 17 -17 30 -11 30 6 0 17 -13 26 -30z m1855 27 c0 -2
-19 -21 -42 -42 l-43 -40 40 43 c36 39 45 47 45 39z m-965 -27 c3 -5 2 -10 -4
-10 -5 0 -13 5 -16 10 -3 6 -2 10 4 10 5 0 13 -4 16 -10z m354 -19 c-13 -11
-26 -17 -29 -14 -3 2 6 13 20 23 32 24 40 16 9 -9z m-1716 -23 c7 -11 6 -26
-3 -47 -16 -39 -30 -24 -30 32 0 40 14 46 33 15z m1767 -33 c0 -38 -7 -42 -33
-22 -16 11 -16 14 -2 35 23 32 35 27 35 -13z m-1180 21 c0 -3 -4 -8 -10 -11
-5 -3 -10 -1 -10 4 0 6 5 11 10 11 6 0 10 -2 10 -4z m127 -28 c-3 -8 -6 -5 -6
6 -1 11 2 17 5 13 3 -3 4 -12 1 -19z"/>
<path d="M2506 4355 c4 -8 11 -15 16 -15 6 0 5 6 -2 15 -7 8 -14 15 -16 15 -2
0 -1 -7 2 -15z"/>
<path d="M2579 4252 c24 -29 46 -50 49 -47 8 8 -26 52 -60 76 -31 23 -31 21
11 -29z"/>
<path d="M2430 4171 c-5 -11 -10 -33 -10 -50 0 -31 -20 -115 -39 -164 -16 -40
-14 -90 5 -113 16 -20 16 -13 -2 31 -5 11 2 15 27 16 19 1 26 3 17 6 -22 6
-23 23 -1 84 12 33 23 49 35 49 9 0 20 5 23 10 4 6 -6 10 -22 10 -26 0 -30 -6
-52 -75 -14 -41 -27 -73 -29 -70 -3 2 7 42 21 87 24 74 49 198 41 198 -2 0 -8
-9 -14 -19z"/>
<path d="M2480 4162 c0 -4 21 -13 48 -19 26 -5 56 -14 66 -18 13 -6 17 -5 12
3 -3 6 -31 18 -60 26 -62 18 -66 19 -66 8z"/>
<path d="M2740 4114 c0 -22 18 -175 25 -209 5 -24 86 -121 125 -150 15 -11 28
-24 30 -30 1 -5 20 -20 41 -33 41 -24 91 -114 104 -186 5 -22 12 -35 19 -33 7
3 13 -4 13 -14 2 -18 0 -18 -25 -2 -26 16 -26 16 -10 -2 10 -10 30 -19 45 -20
16 -1 35 -5 43 -10 8 -5 -4 12 -26 38 -30 34 -43 58 -47 92 -11 74 -32 112
-83 147 -62 43 -154 124 -190 168 l-29 35 28 -18 c15 -9 27 -13 27 -7 0 6 -11
15 -24 21 -26 12 -30 27 -42 139 -7 66 -23 117 -24 74z"/>
<path d="M2681 4020 c14 -31 19 -36 19 -24 0 6 -7 19 -16 30 -14 18 -14 18 -3
-6z"/>
<path d="M2567 3986 c-3 -8 -1 -17 6 -20 7 -3 6 -5 -3 -5 -51 4 -55 -5 -5 -11
33 -5 61 -7 63 -6 4 5 -39 56 -48 56 -4 0 -10 -6 -13 -14z"/>
<path d="M2530 3980 c0 -5 5 -10 10 -10 6 0 10 5 10 10 0 6 -4 10 -10 10 -5 0
-10 -4 -10 -10z"/>
<path d="M2030 3954 c-34 -23 -120 -106 -120 -116 0 -13 73 21 100 47 30 28
65 85 53 85 -5 0 -20 -7 -33 -16z"/>
<path d="M2962 3890 c0 -19 2 -27 5 -17 2 9 2 25 0 35 -3 9 -5 1 -5 -18z"/>
<path d="M2664 3868 c51 -70 46 -103 -12 -94 -36 5 -37 5 -9 -7 15 -7 24 -16
21 -20 -4 -4 -2 -7 5 -7 6 0 11 -6 9 -14 -3 -15 -1 -16 28 -16 12 0 11 5 -7
20 -16 13 -20 22 -13 27 32 23 32 47 3 90 -17 24 -33 43 -36 43 -3 0 2 -10 11
-22z"/>
<path d="M2158 3833 c12 -2 32 -2 45 0 12 2 2 4 -23 4 -25 0 -35 -2 -22 -4z"/>
<path d="M2054 3799 c-19 -22 -19 -22 3 -10 24 12 39 31 25 31 -5 0 -17 -10
-28 -21z"/>
<path d="M2580 3746 c0 -3 9 -10 20 -16 11 -6 20 -8 20 -6 0 3 -9 10 -20 16
-11 6 -20 8 -20 6z"/>
<path d="M1825 3710 c3 -5 8 -10 11 -10 2 0 4 5 4 10 0 6 -5 10 -11 10 -5 0
-7 -4 -4 -10z"/>
<path d="M2730 3707 c0 -2 15 -14 33 -27 20 -15 27 -17 18 -6 -13 16 -51 41
-51 33z"/>
<path d="M1747 3672 c-27 -15 -44 -28 -38 -30 13 -4 64 23 80 42 17 21 15 20
-42 -12z"/>
<path d="M3100 3688 c0 -3 20 -30 45 -59 47 -55 51 -64 36 -74 -6 -3 -6 -18 1
-38 14 -40 28 -58 39 -51 5 3 6 -2 3 -11 -11 -27 -30 0 -60 82 -15 42 -30 71
-31 66 -7 -21 24 -119 52 -163 27 -43 29 -44 38 -22 6 12 13 22 17 22 13 0
-40 133 -65 165 -46 58 -74 90 -75 83z m100 -144 c0 -8 -5 -12 -10 -9 -6 4 -8
11 -5 16 9 14 15 11 15 -7z"/>
<path d="M3000 3571 c0 -5 6 -14 14 -20 12 -10 13 -8 9 8 -5 21 -23 30 -23 12z"/>
<path d="M1639 3493 c-13 -16 -12 -17 4 -4 16 13 21 21 13 21 -2 0 -10 -8 -17
-17z"/>
<path d="M1428 3319 l-33 -31 38 27 c20 15 37 29 37 31 0 10 -12 2 -42 -27z"/>
<path d="M1317 3323 c-13 -13 -7 -21 13 -16 11 3 17 9 14 14 -6 11 -18 12 -27
2z"/>
<path d="M1343 3259 c-24 -17 -43 -32 -43 -35 0 -3 20 9 45 26 25 17 45 33 45
35 0 7 -2 6 -47 -26z"/>
<path d="M1700 2411 c0 -5 22 -28 48 -50 26 -22 48 -50 49 -62 1 -16 -1 -18
-11 -10 -20 17 -97 41 -108 34 -6 -3 13 -16 43 -28 30 -11 54 -27 54 -33 0
-27 174 -117 192 -99 3 4 12 2 20 -4 7 -6 13 -7 13 -2 0 5 -30 34 -67 65 -38
31 -105 88 -150 128 -46 39 -83 67 -83 61z m170 -151 c29 -25 65 -55 79 -67
l26 -22 -25 4 c-14 3 -26 9 -28 15 -2 6 -8 8 -13 4 -5 -3 -9 -1 -9 4 0 5 -11
22 -25 38 -14 16 -25 25 -25 20 0 -12 -29 14 -42 37 -14 27 0 19 62 -33z"/>
<path d="M1624 2364 c-18 -14 -18 -15 4 -4 12 6 22 13 22 15 0 8 -5 6 -26 -11z"/>
<path d="M1805 2166 c11 -7 31 -16 45 -20 19 -5 16 -2 -10 13 -40 23 -65 28
-35 7z"/>
<path d="M3042 3953 c-6 -2 -9 -9 -6 -14 3 -6 0 -16 -6 -24 -10 -12 -10 -15 2
-15 19 0 38 20 38 42 0 18 -5 20 -28 11z"/>
<path d="M3289 3947 c-14 -7 -32 -17 -40 -23 -8 -6 -25 -15 -39 -19 -22 -7
-23 -6 -11 9 11 14 11 16 -2 16 -8 0 -20 -7 -27 -15 -7 -8 -9 -15 -6 -15 4 0
0 -10 -8 -22 -18 -25 -21 -48 -7 -48 5 0 11 14 15 31 4 23 10 30 22 25 14 -5
134 57 134 70 0 5 1 5 -31 -9z"/>
<path d="M3116 3881 c-4 -7 -5 -15 -2 -18 9 -9 19 4 14 18 -4 11 -6 11 -12 0z"/>
<path d="M3236 3835 c-3 -8 -2 -15 3 -15 5 0 14 7 21 15 10 12 10 15 -3 15 -8
0 -17 -7 -21 -15z"/>
<path d="M3660 3670 c0 -5 7 -10 15 -10 8 0 15 5 15 10 0 6 -7 10 -15 10 -8 0
-15 -4 -15 -10z"/>
<path d="M3530 3530 c0 -5 5 -10 10 -10 6 0 10 5 10 10 0 6 -4 10 -10 10 -5 0
-10 -4 -10 -10z"/>
<path d="M3415 3470 c-3 -5 -1 -10 4 -10 6 0 11 5 11 10 0 6 -2 10 -4 10 -3 0
-8 -4 -11 -10z"/>
<path d="M3610 3375 c-11 -13 -10 -14 4 -9 9 3 16 10 16 15 0 13 -6 11 -20 -6z"/>
<path d="M3570 3339 c0 -5 5 -7 10 -4 6 3 10 8 10 11 0 2 -4 4 -10 4 -5 0 -10
-5 -10 -11z"/>
<path d="M3530 3011 c0 -5 -9 -11 -20 -14 -35 -9 -23 -44 13 -38 5 1 6 -8 2
-19 -4 -13 -2 -20 6 -20 7 0 9 3 6 7 -4 3 -2 12 4 20 9 9 8 13 0 13 -6 0 -11
9 -11 20 0 11 6 20 14 20 23 0 27 16 5 17 -10 1 -19 -2 -19 -6z"/>
<path d="M3675 3010 c-3 -5 -2 -10 4 -10 5 0 13 5 16 10 3 6 2 10 -4 10 -5 0
-13 -4 -16 -10z"/>
<path d="M3595 2940 c-4 -6 -3 -16 3 -22 6 -6 12 -6 17 2 4 6 3 16 -3 22 -6 6
-12 6 -17 -2z"/>
<path d="M3440 2869 c0 -5 5 -7 10 -4 6 3 10 8 10 11 0 2 -4 4 -10 4 -5 0 -10
-5 -10 -11z"/>
<path d="M3610 2836 c0 -2 7 -6 15 -10 8 -3 15 -1 15 4 0 6 -7 10 -15 10 -8 0
-15 -2 -15 -4z"/>
<path d="M3550 2780 c0 -5 5 -10 10 -10 6 0 10 5 10 10 0 6 -4 10 -10 10 -5 0
-10 -4 -10 -10z"/>
<path d="M3412 2748 c-17 -17 -15 -28 6 -28 24 0 32 8 25 26 -6 17 -15 18 -31
2z"/>
<path d="M3340 2734 c-11 -12 -10 -18 3 -32 16 -15 18 -15 34 0 13 14 14 20 3
32 -7 9 -16 16 -20 16 -4 0 -13 -7 -20 -16z"/>
<path d="M3360 2670 c0 -5 5 -10 10 -10 6 0 10 5 10 10 0 6 -4 10 -10 10 -5 0
-10 -4 -10 -10z"/>
<path d="M3405 2650 c-3 -5 -1 -10 4 -10 6 0 11 5 11 10 0 6 -2 10 -4 10 -3 0
-8 -4 -11 -10z"/>
<path d="M3336 2479 c12 -13 20 -16 22 -9 3 7 -2 16 -9 21 -25 16 -32 9 -13
-12z"/>
<path d="M3367 2426 c-31 -29 -34 -56 -9 -79 21 -19 45 -21 73 -7 25 14 25 62
-1 85 -11 10 -20 14 -20 9 0 -5 -4 -3 -8 4 -7 9 -15 7 -35 -12z"/>
<path d="M3454 2439 c-9 -16 18 -30 33 -17 7 6 10 14 7 19 -7 13 -31 11 -40
-2z"/>
<path d="M3534 2429 c-2 -4 0 -10 5 -14 6 -3 7 -13 4 -23 -3 -9 4 -5 15 10 12
14 22 29 22 31 0 8 -41 4 -46 -4z"/>
<path d="M3510 2400 c0 -5 5 -10 10 -10 6 0 10 5 10 10 0 6 -4 10 -10 10 -5 0
-10 -4 -10 -10z"/>
<path d="M3536 2271 c-4 -7 -5 -15 -2 -18 9 -9 19 4 14 18 -4 11 -6 11 -12 0z"/>
<path d="M3134 2236 c-15 -12 -17 -17 -6 -28 11 -11 14 -10 22 2 9 14 14 40 7
40 -2 0 -12 -6 -23 -14z"/>
<path d="M3170 2175 c0 -8 4 -15 10 -15 5 0 7 7 4 15 -4 8 -8 15 -10 15 -2 0
-4 -7 -4 -15z"/>
<path d="M3470 2182 c0 -6 -3 -17 -6 -26 -5 -12 0 -16 20 -16 31 0 33 11 6 35
-11 10 -20 13 -20 7z"/>
<path d="M1436 3815 c-9 -26 -7 -32 5 -12 6 10 9 21 6 23 -2 3 -7 -2 -11 -11z"/>
<path d="M960 3729 c0 -5 5 -7 10 -4 6 3 10 8 10 11 0 2 -4 4 -10 4 -5 0 -10
-5 -10 -11z"/>
<path d="M990 3719 c0 -5 5 -7 10 -4 6 3 10 8 10 11 0 2 -4 4 -10 4 -5 0 -10
-5 -10 -11z"/>
<path d="M1030 3679 c0 -5 5 -7 10 -4 6 3 10 8 10 11 0 2 -4 4 -10 4 -5 0 -10
-5 -10 -11z"/>
<path d="M1161 3610 c0 -8 4 -22 9 -30 12 -18 12 -2 0 25 -6 13 -9 15 -9 5z"/>
<path d="M860 3545 c-20 -24 -4 -29 19 -6 14 14 17 21 7 21 -7 0 -19 -7 -26
-15z"/>
<path d="M1236 3545 c4 -8 8 -15 10 -15 2 0 4 7 4 15 0 8 -4 15 -10 15 -5 0
-7 -7 -4 -15z"/>
<path d="M985 3530 c-3 -5 -2 -10 4 -10 5 0 13 5 16 10 3 6 2 10 -4 10 -5 0
-13 -4 -16 -10z"/>
<path d="M824 3482 c2 -44 57 -57 73 -17 8 22 -10 38 -45 40 -25 1 -29 -2 -28
-23z"/>
<path d="M1239 3471 l-24 -20 23 6 c23 5 38 20 29 29 -2 2 -15 -4 -28 -15z"/>
<path d="M1115 3470 c-3 -5 1 -10 9 -10 9 0 16 5 16 10 0 6 -4 10 -9 10 -6 0
-13 -4 -16 -10z"/>
<path d="M770 3455 c-10 -12 -10 -15 3 -15 8 0 17 7 21 15 3 8 2 15 -3 15 -5
0 -14 -7 -21 -15z"/>
<path d="M905 3400 c-26 -28 -15 -31 12 -3 12 13 19 23 14 23 -4 0 -16 -9 -26
-20z"/>
<path d="M788 3403 c7 -3 16 -2 19 1 4 3 -2 6 -13 5 -11 0 -14 -3 -6 -6z"/>
<path d="M1110 3391 c0 -11 26 -22 34 -14 3 3 3 10 0 14 -7 12 -34 11 -34 0z"/>
<path d="M1090 3090 c0 -5 5 -10 10 -10 6 0 10 5 10 10 0 6 -4 10 -10 10 -5 0
-10 -4 -10 -10z"/>
<path d="M1127 2986 c-7 -18 1 -26 25 -26 13 0 18 6 16 17 -4 22 -34 29 -41 9z"/>
<path d="M3239 2712 c-14 -15 -38 -37 -55 -49 -16 -13 -23 -23 -16 -23 16 0
109 86 101 94 -3 3 -17 -6 -30 -22z"/>
<path d="M3160 2570 c-18 -23 -30 -44 -26 -47 7 -7 29 18 51 60 22 39 12 34
-25 -13z"/>
<path d="M2950 2490 c-14 -4 -21 -8 -15 -9 5 -1 -1 -8 -13 -17 -18 -12 -62
-85 -62 -102 0 -14 39 33 44 53 7 26 63 65 94 65 11 0 24 5 27 10 7 12 -38 12
-75 0z"/>
<path d="M2952 2381 c-7 -4 -20 -21 -28 -37 -15 -29 -15 -29 20 5 20 19 36 36
36 38 0 6 -15 3 -28 -6z"/>
<path d="M2880 2285 c-7 -8 -18 -15 -26 -15 -7 0 -15 -4 -18 -9 -11 -17 32 1
50 20 9 10 15 19 12 19 -3 0 -11 -7 -18 -15z"/>
<path d="M2790 2229 c-22 -18 -22 -19 -3 -10 12 6 25 16 28 21 9 15 3 12 -25
-11z"/>
<path d="M760 2720 c-9 -6 -10 -10 -3 -10 6 0 15 5 18 10 8 12 4 12 -15 0z"/>
<path d="M1202 2698 c-7 -7 -12 -26 -12 -42 0 -23 3 -27 9 -17 8 12 12 13 26
1 13 -11 18 -11 28 0 10 10 9 12 -5 7 -20 -7 -24 3 -7 20 14 14 5 43 -14 43
-7 0 -18 -5 -25 -12z"/>
<path d="M765 2690 c-7 -11 4 -60 14 -60 6 0 31 49 31 62 0 11 -38 10 -45 -2z"/>
<path d="M889 2621 c-1 -6 -2 -16 -3 -21 0 -6 -8 -15 -16 -20 -13 -9 -13 -10
0 -10 8 -1 3 -7 -12 -16 -16 -8 -28 -17 -28 -20 0 -12 54 8 67 24 10 14 14 14
21 4 15 -22 56 -11 60 16 2 15 -2 22 -13 22 -9 0 -13 5 -10 10 3 6 0 10 -7 10
-7 0 -23 3 -35 6 -14 4 -24 2 -24 -5z"/>
<path d="M815 2610 c3 -5 8 -10 11 -10 2 0 4 5 4 10 0 6 -5 10 -11 10 -5 0 -7
-4 -4 -10z"/>
<path d="M1186 2602 c-3 -6 -1 -14 5 -17 15 -10 25 3 12 16 -7 7 -13 7 -17 1z"/>
<path d="M960 2511 c-5 -11 -7 -27 -3 -37 5 -13 3 -16 -10 -11 -11 4 -17 1
-17 -9 0 -8 -5 -12 -10 -9 -13 8 -42 -14 -34 -26 10 -16 39 -9 63 16 15 16 30
23 41 20 11 -3 20 1 24 10 3 9 10 13 16 10 11 -7 2 23 -13 43 -14 18 -45 15
-57 -7z"/>
<path d="M801 2461 c-10 -6 -10 -10 -1 -16 6 -4 9 -13 6 -20 -6 -16 21 -28 30
-14 3 5 0 16 -6 24 -10 11 -10 15 -1 15 7 0 9 5 6 10 -8 12 -16 12 -34 1z"/>
<path d="M1264 2415 c-4 -9 -2 -21 4 -27 15 -15 44 -1 40 19 -4 23 -36 29 -44
8z"/>
<path d="M1350 2355 c0 -9 6 -12 15 -9 8 4 12 10 9 15 -8 14 -24 10 -24 -6z"/>
<path d="M1450 2334 c0 -8 5 -12 10 -9 6 4 8 11 5 16 -9 14 -15 11 -15 -7z"/>
<path d="M850 2275 c-19 -23 -7 -39 13 -17 10 11 14 23 9 26 -5 3 -15 -1 -22
-9z"/>
<path d="M833 2209 c-28 -10 -30 -44 -5 -58 24 -13 52 4 52 33 0 28 -16 37
-47 25z"/>
<path d="M700 2180 c0 -5 5 -10 10 -10 6 0 10 5 10 10 0 6 -4 10 -10 10 -5 0
-10 -4 -10 -10z"/>
<path d="M670 2159 c0 -5 5 -7 10 -4 6 3 10 8 10 11 0 2 -4 4 -10 4 -5 0 -10
-5 -10 -11z"/>
<path d="M922 2140 c12 -19 28 -27 28 -14 0 7 -27 34 -34 34 -4 0 -1 -9 6 -20z"/>
<path d="M756 2141 c-4 -7 -5 -15 -2 -18 9 -9 19 4 14 18 -4 11 -6 11 -12 0z"/>
<path d="M766 2081 c-4 -7 -5 -15 -2 -18 9 -9 19 4 14 18 -4 11 -6 11 -12 0z"/>
<path d="M796 2042 c-4 -7 -2 -12 4 -12 6 0 8 -5 4 -11 -4 -7 -1 -10 6 -7 8 2
16 10 18 18 3 7 0 10 -6 6 -6 -3 -12 -1 -14 6 -3 9 -6 9 -12 0z"/>
<path d="M995 2030 c3 -5 8 -10 11 -10 2 0 4 5 4 10 0 6 -5 10 -11 10 -5 0 -7
-4 -4 -10z"/>
<path d="M900 2010 c0 -5 5 -10 10 -10 6 0 10 5 10 10 0 6 -4 10 -10 10 -5 0
-10 -4 -10 -10z"/>
<path d="M860 1880 c-18 -12 -2 -12 25 0 13 6 15 9 5 9 -8 0 -22 -4 -30 -9z"/>
<path d="M2571 2746 c-10 -12 -8 -13 9 -9 25 7 37 23 17 23 -8 0 -20 -6 -26
-14z"/>
<path d="M1847 2713 c8 -23 33 -60 33 -50 0 11 -29 67 -35 67 -2 0 -2 -8 2
-17z"/>
<path d="M2000 2492 c-17 -6 -11 -20 21 -57 28 -32 36 -35 85 -35 l54 0 0 44
0 44 -75 4 c-42 2 -80 2 -85 0z"/>
<path d="M2310 2360 c0 -5 0 -13 0 -17 1 -13 50 -22 72 -14 19 7 19 8 -6 24
-28 19 -66 23 -66 7z"/>
<path d="M2630 2021 c0 -12 6 -21 15 -21 8 0 15 4 15 9 0 5 -7 14 -15 21 -13
10 -15 9 -15 -9z"/>
<path d="M2565 2009 c-4 -6 -5 -12 -2 -15 2 -3 7 2 10 11 7 17 1 20 -8 4z"/>
<path d="M3400 1986 c0 -6 62 -37 67 -32 2 2 -2 8 -9 13 -15 12 -58 27 -58 19z"/>
<path d="M1156 1942 c13 -12 100 -43 110 -40 15 4 108 -13 127 -23 11 -6 17
-6 17 0 0 18 -36 30 -117 40 -43 5 -91 14 -106 20 -34 13 -44 14 -31 3z"/>
<path d="M2980 1910 c-13 -9 -13 -10 0 -9 8 0 24 4 35 9 l20 9 -20 0 c-11 0
-27 -4 -35 -9z"/>
<path d="M1150 1886 c0 -2 7 -7 16 -10 8 -3 12 -2 9 4 -6 10 -25 14 -25 6z"/>
<path d="M3539 1778 c-46 -65 -88 -136 -89 -153 0 -5 21 24 46 65 25 41 62 92
82 113 23 24 31 37 21 37 -8 0 -35 -28 -60 -62z"/>
<path d="M2260 1780 c-8 -5 -10 -10 -5 -10 6 0 17 5 25 10 8 5 11 10 5 10 -5
0 -17 -5 -25 -10z"/>
<path d="M3300 1735 c-7 -9 -10 -18 -7 -21 3 -3 10 4 17 15 13 25 8 27 -10 6z"/>
<path d="M2750 1705 c-13 -14 -19 -25 -14 -25 8 1 50 50 41 50 -2 0 -14 -11
-27 -25z"/>
<path d="M3285 1690 c-4 -6 -11 -8 -16 -5 -5 3 -6 0 -3 -8 3 -8 0 -18 -7 -23
-8 -5 -10 -3 -5 7 4 8 -4 1 -18 -14 -14 -15 -26 -35 -26 -43 0 -8 -7 -29 -16
-45 -26 -51 -10 -42 33 19 41 59 77 122 69 122 -3 0 -8 -5 -11 -10z"/>
<path d="M3628 1644 c-11 -11 -10 -84 1 -84 6 0 12 3 14 8 8 12 -7 84 -15 76z"/>
<path d="M2240 1616 c-5 -14 -10 -50 -11 -81 -1 -31 -6 -58 -11 -61 -4 -3 -2
-13 4 -24 9 -14 9 -22 -3 -37 -13 -16 -13 -17 4 -4 15 12 17 11 17 -3 0 -18 2
-19 24 -10 14 5 14 9 4 23 -11 14 -11 14 2 4 13 -10 26 -7 65 12 28 13 56 25
63 25 6 0 12 6 12 14 0 8 -8 13 -17 11 -72 -14 -83 -14 -83 1 0 11 -4 12 -19
4 -11 -5 -22 -10 -25 -10 -3 0 -4 36 -3 80 2 81 -6 100 -23 56z"/>
<path d="M1864 1605 c-9 -22 1 -29 15 -11 8 10 9 16 1 21 -5 3 -13 -1 -16 -10z"/>
<path d="M3250 1540 c0 -5 1 -11 2 -12 2 -2 -5 -14 -15 -28 -21 -30 -22 -47
-3 -31 12 10 15 6 21 -19 4 -16 11 -30 16 -30 5 0 9 -4 9 -10 0 -5 -6 -9 -12
-7 -16 3 -23 -52 -9 -66 7 -7 14 -1 22 19 14 35 20 116 8 108 -5 -3 -9 9 -9
25 0 22 -5 31 -16 31 -14 0 -14 3 -4 15 9 10 9 15 1 15 -6 0 -11 -4 -11 -10z"/>
<path d="M3146 1472 l-19 -27 24 22 c12 12 21 24 18 27 -2 2 -13 -8 -23 -22z"/>
<path d="M1732 1410 c0 -36 2 -58 5 -50 2 8 7 21 9 29 3 11 7 11 19 1 13 -10
15 -8 15 13 0 14 -4 29 -10 32 -5 3 -10 -1 -10 -9 0 -9 -5 -16 -11 -16 -5 0
-8 4 -5 9 4 5 2 20 -3 33 -6 17 -8 6 -9 -42z"/>
<path d="M2151 1454 c0 -11 3 -14 6 -6 3 7 2 16 -1 19 -3 4 -6 -2 -5 -13z"/>
<path d="M1791 1432 c0 -19 7 -46 18 -60 10 -15 17 -39 16 -55 -2 -15 1 -25 6
-21 5 3 9 0 9 -7 0 -10 3 -10 12 -1 20 20 32 13 13 -8 -10 -11 -21 -17 -25
-15 -4 3 -10 -2 -14 -10 -6 -15 89 29 109 51 5 7 29 23 51 37 l42 26 0 -25 c0
-17 -8 -28 -23 -34 -28 -11 -40 -38 -17 -36 42 3 50 19 53 103 l4 82 -47 -46
c-26 -25 -52 -59 -59 -74 -6 -16 -16 -26 -22 -22 -5 3 -7 2 -4 -3 3 -6 -12
-10 -35 -9 -25 1 -43 6 -46 14 -3 9 0 11 9 6 7 -5 3 9 -11 31 -13 21 -26 55
-30 74 l-8 35 -1 -33z"/>
<path d="M2729 1458 c-5 -19 -2 -85 4 -81 7 4 7 83 0 83 -2 0 -3 -1 -4 -2z"/>
<path d="M1350 1391 c0 -27 4 -52 9 -55 4 -3 7 -18 5 -33 l-4 -28 9 28 c5 16
14 34 19 40 10 13 24 62 15 53 -3 -3 -17 6 -30 20 l-23 25 0 -50z m27 -30 c0
-11 -5 -18 -9 -15 -4 3 -5 11 -1 19 7 21 12 19 10 -4z"/>
<path d="M2774 1413 c3 -6 -3 -14 -12 -16 -14 -4 -15 -5 -1 -6 9 0 24 8 34 18
16 19 16 20 -4 18 -12 -1 -20 -6 -17 -14z"/>
<path d="M1750 1366 c0 -8 -3 -22 -7 -31 -5 -13 0 -12 21 6 19 17 23 25 14 31
-19 12 -28 10 -28 -6z"/>
<path d="M2215 1360 c-3 -6 1 -7 9 -4 18 7 21 14 7 14 -6 0 -13 -4 -16 -10z"/>
<path d="M2572 1350 c0 -14 2 -19 5 -12 2 6 2 18 0 25 -3 6 -5 1 -5 -13z"/>
<path d="M3071 1354 c0 -11 3 -14 6 -6 3 7 2 16 -1 19 -3 4 -6 -2 -5 -13z"/>
<path d="M3088 1336 c-9 -16 -8 -18 8 -12 18 6 18 6 1 -8 -10 -8 -25 -23 -33
-33 -13 -17 -14 -17 -9 2 3 11 -1 7 -9 -10 -8 -16 -27 -35 -42 -42 -16 -7 -23
-12 -16 -13 7 0 22 5 33 10 24 14 26 -5 2 -20 -15 -9 -14 -10 7 -4 l25 7 -20
-23 -20 -24 26 20 c15 10 23 22 18 25 -6 3 8 11 30 18 23 6 45 20 51 31 9 16
7 20 -14 26 -14 3 -30 3 -35 -1 -6 -3 -11 -2 -11 3 0 5 30 23 68 40 l67 32
-58 -2 c-46 -2 -61 -6 -69 -22z"/>
<path d="M1508 1333 c7 -3 16 -2 19 1 4 3 -2 6 -13 5 -11 0 -14 -3 -6 -6z"/>
<path d="M1716 1318 c-3 -13 -2 -26 2 -30 4 -4 8 6 9 23 3 35 -2 38 -11 7z"/>
<path d="M1782 1315 c3 -14 -1 -30 -8 -36 -8 -7 -14 -31 -14 -59 0 -36 -7 -56
-30 -88 -17 -23 -27 -42 -23 -42 5 0 21 20 38 44 23 36 29 53 26 90 -2 33 2
48 12 52 15 5 18 64 3 64 -4 0 -6 -11 -4 -25z"/>
<path d="M2660 1332 c0 -10 49 -46 55 -40 1 2 -11 13 -26 26 -16 13 -29 19
-29 14z"/>
<path d="M3643 1320 c-18 -11 -33 -25 -33 -32 0 -6 12 -1 28 13 15 13 31 27
37 31 17 15 0 8 -32 -12z"/>
<path d="M2423 1311 c-10 -16 -8 -17 14 -13 14 3 21 8 16 11 -4 3 -10 9 -13
13 -3 4 -11 -1 -17 -11z"/>
<path d="M2533 1303 c31 -13 37 -20 37 -46 0 -24 -3 -28 -12 -19 -7 7 -26 11
-42 11 l-31 -2 29 -4 c53 -8 64 -36 50 -126 -5 -29 -9 -35 -20 -26 -19 16 -32
3 -26 -26 2 -15 0 -25 -7 -25 -6 0 -12 15 -12 33 -1 17 -3 24 -6 14 -2 -9 -8
-15 -13 -12 -10 6 -8 -15 3 -32 5 -8 3 -13 -3 -13 -6 0 -8 -5 -4 -11 3 -6 0
-15 -7 -20 -10 -6 -11 -9 -1 -9 6 0 12 -10 12 -22 0 -20 18 -61 21 -48 0 3 3
19 5 35 10 76 37 127 49 93 10 -32 11 -138 1 -135 -6 2 -12 21 -12 43 -2 66
-7 72 -13 14 -4 -36 -2 -59 5 -65 7 -5 19 -45 29 -87 9 -43 21 -78 26 -78 5 0
9 -8 10 -17 0 -14 2 -15 6 -3 4 8 12 21 20 28 7 8 12 31 11 55 l-1 42 -4 -42
c-4 -43 -29 -78 -37 -52 -2 8 -8 28 -13 44 -5 17 -8 139 -7 272 3 240 3 241
-19 247 -46 12 -63 4 -24 -11z"/>
<path d="M1686 1256 c-18 -29 -20 -36 -7 -36 5 0 11 9 14 20 3 11 11 20 17 20
9 0 9 -4 -1 -17 -11 -15 -11 -16 0 -6 7 6 20 9 27 6 10 -4 12 0 8 11 -4 9 -9
14 -12 12 -3 -3 -11 -1 -17 4 -9 7 -17 3 -29 -14z"/>
<path d="M2411 1256 c2 -2 18 -6 34 -10 22 -5 26 -4 15 4 -14 9 -59 15 -49 6z"/>
<path d="M2053 1180 c0 -30 2 -43 4 -27 2 15 2 39 0 55 -2 15 -4 2 -4 -28z"/>
<path d="M2435 1220 c-3 -6 1 -7 9 -4 15 6 21 -6 17 -29 -1 -5 3 -6 8 -3 13 8
1 46 -15 46 -7 0 -16 -4 -19 -10z"/>
<path d="M3095 1220 c-19 -8 -19 -9 3 -9 12 -1 22 4 22 9 0 6 -1 10 -2 9 -2 0
-12 -4 -23 -9z"/>
<path d="M2420 1179 c0 -11 -9 -35 -21 -52 l-21 -32 26 28 c22 24 37 77 21 77
-3 0 -5 -9 -5 -21z"/>
<path d="M2735 1171 c-6 -11 13 -26 22 -17 4 3 1 6 -6 6 -7 0 -9 5 -6 10 3 6
4 10 1 10 -3 0 -7 -4 -11 -9z"/>
<path d="M2776 1138 c3 -5 10 -6 15 -3 13 9 11 12 -6 12 -8 0 -12 -4 -9 -9z"/>
<path d="M2836 1135 c-9 -26 -7 -32 5 -12 6 10 9 21 6 23 -2 3 -7 -2 -11 -11z"/>
<path d="M3699 1133 c-13 -16 -12 -17 4 -4 9 7 17 15 17 17 0 8 -8 3 -21 -13z"/>
<path d="M2867 1122 c-17 -21 -11 -93 9 -105 8 -4 14 -14 14 -22 0 -8 4 -16
10 -20 5 -3 5 7 -2 25 -6 17 -8 47 -5 66 4 24 2 32 -5 28 -8 -5 -9 -1 -5 10 4
10 7 20 7 22 0 3 4 3 9 -1 5 -3 12 -2 15 3 9 16 -32 10 -47 -6z"/>
<path d="M2436 1113 c-6 -14 -5 -15 5 -6 7 7 10 15 7 18 -3 3 -9 -2 -12 -12z"/>
<path d="M3637 1084 c-12 -12 5 -32 24 -27 23 6 25 19 3 27 -19 7 -19 7 -27 0z"/>
<path d="M2652 1010 c0 -14 2 -19 5 -12 2 6 2 18 0 25 -3 6 -5 1 -5 -13z"/>
<path d="M2797 1005 c-3 -17 -8 -39 -12 -50 -3 -11 0 -9 7 5 7 14 15 27 19 30
3 3 3 14 -1 25 -6 16 -8 15 -13 -10z"/>
<path d="M1798 1013 c7 -3 16 -2 19 1 4 3 -2 6 -13 5 -11 0 -14 -3 -6 -6z"/>
<path d="M2850 1000 c-9 -6 -10 -10 -3 -10 6 0 15 5 18 10 8 12 4 12 -15 0z"/>
<path d="M2345 980 c-3 -6 1 -7 9 -4 18 7 21 14 7 14 -6 0 -13 -4 -16 -10z"/>
<path d="M2408 983 c7 -3 16 -2 19 1 4 3 -2 6 -13 5 -11 0 -14 -3 -6 -6z"/>
<path d="M2870 967 c0 -10 8 -17 18 -17 9 0 13 4 7 8 -5 4 -13 11 -17 16 -5 5
-8 2 -8 -7z"/>
<path d="M2831 909 c-18 -6 -31 -12 -29 -14 5 -5 78 14 78 20 0 6 -8 5 -49 -6z"/>
<path d="M2759 873 c-13 -17 -13 -17 6 -3 11 8 22 16 24 17 2 2 0 3 -6 3 -6 0
-17 -8 -24 -17z"/>
<path d="M1941 851 c-23 -15 3 -20 29 -5 22 12 23 13 5 13 -11 1 -26 -3 -34
-8z"/>
<path d="M2664 788 l-19 -23 23 19 c21 18 27 26 19 26 -2 0 -12 -10 -23 -22z"/>
<path d="M2152 710 c0 -14 2 -19 5 -12 2 6 2 18 0 25 -3 6 -5 1 -5 -13z"/>
<path d="M2270 611 c0 -5 5 -13 10 -16 6 -3 10 -2 10 4 0 5 -4 13 -10 16 -5 3
-10 2 -10 -4z"/>
<path d="M2080 570 c0 -5 5 -10 10 -10 6 0 10 5 10 10 0 6 -4 10 -10 10 -5 0
-10 -4 -10 -10z"/>
<path d="M2220 526 c0 -9 5 -16 10 -16 6 0 10 4 10 9 0 6 -4 13 -10 16 -5 3
-10 -1 -10 -9z"/>
<path d="M1955 500 c3 -5 8 -10 11 -10 2 0 4 5 4 10 0 6 -5 10 -11 10 -5 0 -7
-4 -4 -10z"/>
<path d="M984 1455 c22 -17 40 -20 32 -6 -3 5 -16 11 -28 14 -22 6 -22 5 -4
-8z"/>
<path d="M938 1113 c-30 -35 -28 -41 18 -67 55 -31 70 -32 107 -8 l27 19 -21
19 c-22 19 -22 19 -10 -3 10 -20 9 -23 -8 -23 -20 0 -81 54 -81 71 0 15 -16
10 -32 -8z"/>
<path d="M1120 990 c0 -5 5 -10 11 -10 5 0 7 5 4 10 -3 6 -8 10 -11 10 -2 0
-4 -4 -4 -10z"/>
<path d="M3778 693 c7 -3 16 -2 19 1 4 3 -2 6 -13 5 -11 0 -14 -3 -6 -6z"/>
<path d="M3597 552 c-16 -18 -14 -32 5 -32 5 0 6 5 2 11 -3 6 0 15 7 20 7 4
11 10 8 14 -3 3 -13 -3 -22 -13z"/>
<path d="M3540 499 c0 -5 5 -7 10 -4 6 3 10 8 10 11 0 2 -4 4 -10 4 -5 0 -10
-5 -10 -11z"/>
<path d="M3135 941 c-3 -5 -2 -12 3 -15 5 -3 9 1 9 9 0 17 -3 19 -12 6z"/>
<path d="M2939 639 l-24 -20 28 17 c15 9 27 18 27 20 0 8 -8 4 -31 -17z"/>
<path d="M809 696 c14 -14 29 -26 34 -26 13 0 -12 29 -37 42 -19 10 -18 8 3
-16z"/>
<path d="M3183 90 c0 -30 1 -47 4 -37 5 18 5 18 25 0 21 -18 21 -18 9 5 -10
19 -10 27 1 40 10 13 8 13 -9 -1 -21 -19 -22 -19 -26 15 -2 20 -4 11 -4 -22z"/>
<path d="M3698 123 c6 -2 12 -20 12 -38 0 -18 -6 -36 -12 -38 -7 -3 -4 -6 7
-6 18 -1 20 4 17 44 -3 34 -8 45 -21 44 -10 0 -11 -2 -3 -6z"/>
<path d="M3772 118 c-17 -17 -15 -53 4 -69 14 -11 18 -10 30 6 17 23 17 30 4
56 -12 22 -21 24 -38 7z m32 -14 c9 -23 -3 -56 -17 -51 -22 7 -21 67 2 67 5 0
12 -7 15 -16z"/>
<path d="M3858 123 c6 -2 12 -20 12 -38 0 -18 -6 -36 -12 -38 -7 -3 -4 -6 7
-6 18 -1 20 4 17 44 -3 34 -8 45 -21 44 -10 0 -11 -2 -3 -6z"/>
<path d="M3930 121 c0 -5 9 -7 20 -4 11 3 20 7 20 9 0 2 -9 4 -20 4 -11 0 -20
-4 -20 -9z"/>
<path d="M4018 105 c-24 -32 -23 -35 15 -34 31 2 31 2 4 6 -28 4 -28 5 -11 24
9 10 15 21 13 23 -2 2 -12 -6 -21 -19z"/>
<path d="M4098 123 c6 -2 12 -20 12 -38 0 -18 -6 -36 -12 -38 -7 -3 -4 -6 7
-6 18 -1 20 4 17 44 -3 34 -8 45 -21 44 -10 0 -11 -2 -3 -6z"/>
<path d="M4178 123 c6 -2 12 -20 12 -38 0 -18 -6 -36 -12 -38 -7 -3 -4 -6 7
-6 18 -1 20 4 17 44 -3 34 -8 45 -21 44 -10 0 -11 -2 -3 -6z"/>
<path d="M4247 123 c-14 -14 -6 -45 13 -50 25 -7 26 -20 3 -27 -14 -4 -13 -4
2 -3 12 2 19 10 19 20 -1 9 2 17 7 17 5 0 9 5 9 12 0 9 -3 9 -12 0 -19 -19
-38 -14 -38 9 0 16 5 20 20 16 11 -3 18 -1 14 4 -6 11 -28 12 -37 2z"/>
<path d="M4334 118 c-5 -7 -3 -8 6 -3 7 4 16 2 21 -6 7 -11 9 -10 9 4 0 19
-25 23 -36 5z"/>
<path d="M2842 83 c2 -20 9 -38 16 -39 7 -1 8 0 2 3 -14 7 -13 50 2 55 7 3 5
7 -6 11 -15 6 -17 2 -14 -30z"/>
<path d="M3012 83 c2 -20 9 -38 16 -39 7 -1 8 0 2 3 -14 7 -13 50 2 55 7 3 5
7 -6 11 -15 6 -17 2 -14 -30z"/>
<path d="M2661 60 c1 -25 3 -37 6 -28 2 9 10 15 17 12 19 -7 39 22 31 45 -4
14 -14 20 -31 19 -22 -2 -24 -7 -23 -48z m46 24 c8 -21 -13 -42 -28 -27 -13
13 -5 43 11 43 6 0 13 -7 17 -16z"/>
<path d="M2743 75 c0 -22 2 -30 4 -17 2 12 2 30 0 40 -3 9 -5 -1 -4 -23z"/>
<path d="M2778 95 c7 -14 7 -27 1 -40 -10 -19 -10 -19 4 -2 15 18 16 18 26 0
6 -10 11 -13 11 -7 0 5 -5 15 -11 21 -8 8 -8 13 0 17 6 4 11 13 11 19 0 8 -4
7 -9 -2 -8 -13 -12 -13 -27 0 -16 13 -16 12 -6 -6z"/>
<path d="M2900 100 c13 -9 13 -12 -2 -21 -26 -15 -23 -39 5 -37 19 2 22 7 19
35 -3 22 -9 33 -21 33 -14 0 -14 -2 -1 -10z m10 -40 c0 -5 -4 -10 -10 -10 -5
0 -10 5 -10 10 0 6 5 10 10 10 6 0 10 -4 10 -10z"/>
<path d="M2954 98 c-4 -6 0 -16 9 -23 22 -16 21 -22 0 -28 -16 -4 -16 -5 -1
-6 24 -2 34 20 15 34 -22 16 -21 22 1 28 15 4 15 5 0 6 -9 0 -20 -4 -24 -11z"/>
<path d="M3057 103 c-4 -3 -7 -17 -7 -30 0 -26 26 -41 42 -25 8 8 5 9 -11 5
-18 -4 -21 -1 -21 22 0 22 4 26 20 22 11 -3 18 -1 14 4 -6 11 -28 12 -37 2z"/>
<path d="M3124 96 c-10 -25 0 -51 21 -54 18 -2 19 -2 3 8 -10 6 -18 17 -18 25
0 8 8 19 18 24 16 10 16 10 -1 11 -10 0 -20 -6 -23 -14z"/>
<path d="M3294 96 c-10 -25 0 -51 21 -54 18 -2 19 -2 3 8 -10 6 -18 17 -18 25
0 8 8 19 18 24 16 10 16 10 -1 11 -10 0 -20 -6 -23 -14z"/>
<path d="M3354 96 c-17 -44 26 -76 46 -34 10 21 10 21 -3 6 -21 -26 -37 -22
-37 8 0 21 4 25 20 21 11 -3 18 -1 14 4 -8 14 -34 11 -40 -5z"/>
<path d="M3421 71 c1 -35 2 -35 8 -7 9 43 31 45 32 4 l1 -33 7 29 c9 42 29 44
34 4 l5 -33 -2 35 c-1 34 -2 35 -43 36 l-43 1 1 -36z"/>
<path d="M3943 89 c9 -5 17 -16 17 -24 0 -7 -8 -16 -17 -19 -14 -4 -14 -4 2
-3 37 4 27 57 -10 57 -5 -1 -2 -5 8 -11z"/>
<path d="M4358 78 c10 -12 10 -18 1 -24 -7 -4 -18 1 -26 11 -12 17 -13 17 -13
2 0 -24 28 -33 46 -15 13 13 13 16 -3 29 -16 13 -17 12 -5 -3z"/>
<path d="M3583 73 c9 -2 23 -2 30 0 6 3 -1 5 -18 5 -16 0 -22 -2 -12 -5z"/>
</g>
</svg>
